<?xml version="1.0" encoding="UTF-8" standalone="no"?>
<!-- Created with Inkscape (http://www.inkscape.org/) -->

<svg
   width="240mm"
   height="320mm"
   viewBox="0 0 240 320"
   version="1.1"
   id="svg5"
   xml:space="preserve"
   inkscape:version="1.2.2 (732a01da63, 2022-12-09, custom)"
   sodipodi:docname="odyCy_with_text_below"
   xmlns:inkscape="http://www.inkscape.org/namespaces/inkscape"
   xmlns:sodipodi="http://sodipodi.sourceforge.net/DTD/sodipodi-0.dtd"
   xmlns="http://www.w3.org/2000/svg"
   xmlns:svg="http://www.w3.org/2000/svg"><sodipodi:namedview
     id="namedview7"
     pagecolor="#ffffff"
     bordercolor="#000000"
     borderopacity="0.25"
     inkscape:showpageshadow="2"
     inkscape:pageopacity="0.0"
     inkscape:pagecheckerboard="0"
     inkscape:deskcolor="#d1d1d1"
     inkscape:document-units="mm"
     showgrid="false"
     inkscape:zoom="0.91490602"
     inkscape:cx="1347.6794"
     inkscape:cy="482.56323"
     inkscape:window-width="3840"
     inkscape:window-height="2096"
     inkscape:window-x="0"
     inkscape:window-y="27"
     inkscape:window-maximized="1"
     inkscape:current-layer="layer1" /><defs
     id="defs2"><clipPath
       clipPathUnits="userSpaceOnUse"
       id="clipPath7087"><circle
         style="opacity:1;fill:#472813;fill-opacity:1;stroke-width:0.119062;stroke-linecap:round;stroke-linejoin:round"
         id="circle7089"
         cx="-298.73096"
         cy="124.30503"
         r="23.266222" /></clipPath></defs><g
     inkscape:label="Layer 1"
     inkscape:groupmode="layer"
     id="layer1"><g
       id="g41785"
       transform="matrix(0.66721739,0,0,0.66721739,-165.20924,193.87804)"><path
         d="m 282.25598,115.1829 q 0,-8.66083 2.53013,-15.278085 2.62744,-6.617256 7.0065,-10.996324 4.47639,-4.47638 10.31514,-6.71457 5.93607,-2.23819 12.55332,-2.23819 6.51995,0 12.26139,2.23819 5.83876,2.23819 10.21783,6.71457 4.37907,4.379068 6.9092,10.996324 2.62743,6.617255 2.62743,15.278085 0,8.66082 -2.62743,15.27808 -2.53013,6.61725 -6.9092,11.09363 -4.37907,4.37906 -10.21783,6.61726 -5.74144,2.23819 -12.26139,2.23819 -6.61725,0 -12.55332,-2.23819 -5.83875,-2.2382 -10.31514,-6.61726 -4.37906,-4.47638 -7.0065,-11.09363 -2.53013,-6.61726 -2.53013,-15.27808 z m 9.92588,0 q 0,6.13069 1.55701,11.19094 1.557,4.96294 4.37907,8.4662 2.91938,3.50326 7.0065,5.44951 4.18444,1.84893 9.34201,1.84893 5.15757,0 9.2447,-1.84893 4.08713,-1.94625 6.9092,-5.44951 2.91937,-3.50326 4.47637,-8.4662 1.55701,-5.06025 1.55701,-11.19094 0,-6.1307 -1.55701,-11.09364 -1.557,-5.060258 -4.47637,-8.563512 -2.82207,-3.503253 -6.9092,-5.352193 -4.08713,-1.946252 -9.2447,-1.946252 -5.15757,0 -9.34201,1.946252 -4.08712,1.84894 -7.0065,5.352193 -2.82207,3.503254 -4.37907,8.563512 -1.55701,4.96294 -1.55701,11.09364 z"
         id="path41435"
         style="font-size:116.381px;font-family:Ubuntu;-inkscape-font-specification:Ubuntu;fill:#424c2f;stroke-width:0.729837;stroke-linecap:round;stroke-linejoin:round" /><path
         d="m 381.61214,104.47851 q -7.00651,1.94625 -10.99632,7.29844 -3.98983,5.25489 -3.98983,12.55333 0,3.50325 0.77851,6.81188 0.87581,3.21132 2.62744,5.74144 1.75163,2.43282 4.47638,3.89251 2.72475,1.45969 6.51994,1.45969 3.50326,0 6.13069,-1.36238 2.72476,-1.36237 4.47639,-3.69788 1.84894,-2.3355 2.72475,-5.4495 0.97313,-3.21132 0.97313,-6.9092 0,-4.37907 -1.36239,-7.59038 -1.26506,-3.30863 -3.30862,-5.64413 -1.94625,-2.3355 -4.37906,-3.98982 -2.43282,-1.75163 -4.67101,-3.114 z m -7.10382,-4.573695 q -3.69788,-2.62744 -6.03339,-5.64413 -2.23818,-3.016691 -2.23818,-7.201133 0,-6.811883 4.86563,-10.217824 4.96294,-3.405941 13.42914,-3.405941 2.62743,0 4.96294,0.38925 2.43281,0.389251 4.37906,0.973126 1.94626,0.486563 3.40595,1.167752 1.557,0.583875 2.43281,0.973126 l -2.04356,7.201133 q -0.48656,-0.291938 -1.65431,-0.778501 -1.16776,-0.583876 -2.82207,-1.070439 -1.65432,-0.583876 -3.79519,-0.973126 -2.14088,-0.389251 -4.47639,-0.389251 -1.26506,0 -3.01668,0.194626 -1.65432,0.09731 -3.21132,0.681188 -1.45969,0.583876 -2.53013,1.751627 -0.97313,1.070439 -0.97313,2.919378 0,2.62744 2.43282,4.768318 2.53013,2.043565 6.9092,4.962943 3.79519,2.627439 7.39575,5.352193 3.69788,2.62744 6.51995,5.93607 2.82206,3.30862 4.47638,7.59038 1.75162,4.28175 1.75162,10.21782 0,4.5737 -1.36237,9.05008 -1.36237,4.37906 -4.28175,7.97963 -2.82207,3.50325 -7.29845,5.74145 -4.47638,2.14087 -10.8017,2.14087 -5.93607,0 -10.41245,-2.04356 -4.37907,-2.04356 -7.39576,-5.54682 -2.91937,-3.50326 -4.37907,-8.17426 -1.45968,-4.671 -1.45968,-9.92589 0,-4.47637 1.26506,-8.36888 1.36238,-3.8925 3.60057,-7.0065 2.3355,-3.11401 5.4495,-5.44951 3.21132,-2.33551 6.9092,-3.795195 z"
         id="path41437"
         style="font-size:116.381px;font-family:Ubuntu;-inkscape-font-specification:Ubuntu;fill:#424c2f;stroke-width:0.729837;stroke-linecap:round;stroke-linejoin:round" /><path
         d="m 437.66408,150.02081 q -6.32532,0 -10.41245,-1.84894 -3.98982,-1.94625 -6.32532,-5.06026 -2.33551,-3.21132 -3.21132,-7.29844 -0.87581,-4.08713 -0.87581,-8.36889 V 98.347813 h 9.05007 v 27.831407 q 0,8.56351 2.91938,12.16408 3.01669,3.50325 8.85545,3.50325 5.83876,0 8.75813,-3.50325 3.01669,-3.60057 3.01669,-12.16408 V 98.347813 h 9.05007 v 29.096467 q 0,4.28176 -0.87581,8.36889 -0.87581,4.08712 -3.21131,7.29844 -2.3355,3.11401 -6.42264,5.06026 -3.98982,1.84894 -10.31513,1.84894 z m 11.09363,-72.400581 -12.65064,15.375392 -5.25487,-3.697879 10.99632,-16.543143 z"
         id="path41439"
         style="font-size:116.381px;font-family:Ubuntu;-inkscape-font-specification:Ubuntu;fill:#424c2f;stroke-width:0.729837;stroke-linecap:round;stroke-linejoin:round" /><path
         d="m 503.05799,150.41006 q -7.10383,0 -12.94258,-2.3355 -5.83875,-2.33551 -10.0232,-6.81188 -4.18444,-4.47639 -6.51994,-10.99634 -2.23819,-6.61725 -2.23819,-15.08344 0,-8.4662 2.53013,-14.98615 2.62744,-6.617254 7.0065,-11.093634 4.37908,-4.476379 10.21782,-6.811882 5.83876,-2.335503 12.45602,-2.335503 4.18445,0 7.49307,0.583876 3.40594,0.583876 5.83876,1.362377 2.53012,0.7785 4.08713,1.557001 1.557,0.778501 2.14087,1.167752 l -2.72475,7.785008 q -0.87581,-0.583876 -2.53013,-1.265064 -1.65431,-0.681188 -3.79519,-1.362376 -2.04356,-0.681189 -4.57369,-1.070439 -2.43281,-0.486563 -4.96294,-0.486563 -5.35219,0 -9.63395,1.84894 -4.28176,1.848939 -7.29845,5.352193 -3.01668,3.503253 -4.671,8.563504 -1.557,4.96295 -1.557,11.19096 0,6.03338 1.36237,10.99632 1.45969,4.96294 4.28176,8.56351 2.82206,3.50326 7.0065,5.44951 4.28176,1.94624 9.92589,1.94624 6.51994,0 10.8017,-1.36237 4.28175,-1.36238 6.42263,-2.43281 l 2.43282,7.78501 q -0.68119,0.48655 -2.43282,1.26506 -1.75163,0.68119 -4.37906,1.36237 -2.62745,0.68119 -6.13069,1.16775 -3.50326,0.48657 -7.59039,0.48657 z"
         id="path41441"
         style="font-size:116.381px;font-family:Ubuntu;-inkscape-font-specification:Ubuntu;fill:#562074;fill-opacity:1;stroke-width:0.729837;stroke-linecap:round;stroke-linejoin:round" /><path
         d="m 526.3155,158.38969 q 1.07044,0.48657 2.72476,0.87581 1.75162,0.48657 3.40594,0.48657 5.35219,0 8.36888,-2.43282 3.01669,-2.3355 5.4495,-7.6877 -6.13069,-11.67751 -11.48289,-24.71739 -5.25487,-13.13721 -8.75813,-26.566347 h 9.73126 q 1.07045,4.379067 2.53013,9.439317 1.55701,5.06026 3.40595,10.41246 1.84893,5.35218 3.98981,10.70438 2.14088,5.35219 4.47638,10.31514 3.69788,-10.21783 6.42263,-20.24102 2.72476,-10.0232 5.15757,-20.630277 h 9.34201 q -3.50325,14.304947 -7.78501,27.539467 -4.28176,13.1372 -9.2447,24.62009 -1.94625,4.37907 -4.08713,7.49307 -2.04356,3.21132 -4.57369,5.25488 -2.53012,2.04356 -5.74145,3.01669 -3.114,0.97313 -7.10381,0.97313 -1.07044,0 -2.23819,-0.19463 -1.16775,-0.0973 -2.33551,-0.38925 -1.07044,-0.19463 -2.04356,-0.48656 -0.87581,-0.29194 -1.26506,-0.48656 z"
         id="path41443"
         style="font-size:116.381px;font-family:Ubuntu;-inkscape-font-specification:Ubuntu;fill:#562074;fill-opacity:1;stroke-width:0.729837;stroke-linecap:round;stroke-linejoin:round" /></g><g
       id="g42609"
       transform="translate(-6.6437481)"><rect
         style="fill:#dda9b4;fill-opacity:1;stroke-width:0.135575;stroke-linecap:round;stroke-linejoin:round"
         id="rect462"
         width="218.14293"
         height="218.14293"
         x="17.675404"
         y="-229.07146"
         ry="41.067318"
         transform="scale(1,-1)" /><path
         style="fill:#fefcfd;fill-opacity:1;stroke:none;stroke-width:0.216394;stroke-linecap:round;stroke-linejoin:round;stroke-opacity:1"
         d="M 41.21572,55.425334 41.08761,66.655918 27.956702,68.869413 17.823251,59.008173 Z"
         id="path6640"
         sodipodi:nodetypes="ccccc" /><path
         style="fill:#f9ecf2;fill-opacity:1;stroke:none;stroke-width:0.216394;stroke-linecap:round;stroke-linejoin:round;stroke-opacity:1"
         d="M 59.075858,52.689842 56.367618,63.452044 44.448607,66.10758 35.683389,56.272679 Z"
         id="path6500"
         sodipodi:nodetypes="ccccc" /><path
         style="fill:#fefcfd;fill-opacity:1;stroke:none;stroke-width:0.216394;stroke-linecap:round;stroke-linejoin:round;stroke-opacity:1"
         d="M 72.239385,50.673691 70.844304,62.147373 58.980366,64.117768 48.846915,54.256528 Z"
         id="path6429"
         sodipodi:nodetypes="ccccc" /><path
         id="rect1173"
         style="fill:#386fa4;fill-opacity:1;stroke:none;stroke-width:0.119062;stroke-linecap:round;stroke-linejoin:round"
         d="m 58.538172,229.07146 c -22.751272,0 -41.067261,-18.31598 -41.067261,-41.06726 V 120.05952 H 235.61367 v 67.94468 c 0,22.75128 -18.31599,41.06726 -41.06726,41.06726 z" /><path
         style="fill:#57321a;fill-opacity:1;stroke:none;stroke-width:0.250084;stroke-linecap:round;stroke-linejoin:round;stroke-opacity:1"
         d="M 74.915974,123.34267 V 21.753864 l 4.609932,-0.670748 -0.05749,102.016484 z"
         id="path6018"
         sodipodi:nodetypes="ccccc" /><path
         style="fill:#e8d6aa;fill-opacity:1;stroke:none;stroke-width:0.171398;stroke-linecap:round;stroke-linejoin:round;stroke-opacity:1"
         d="m 73.184946,93.37483 0.615887,12.48565 -0.952985,9.38154 0.882628,3.08913 v 1.13858 l 2.324432,0.18401 0.0053,-1.79147 -0.908304,-2.81549 1.811588,-9.04687 0.42885,-10.143682 1.093971,10.516122 -0.599155,6.84148 0.60542,5.69242 2.563688,0.45997 -0.04783,-13.70909 -0.215116,-10.354781 -0.515028,-14.789054 3.324552,4.027688 -2.924234,6.595301 -0.04212,2.318863 5.150599,-9.330464 -5.126943,-7.077211 -3.826517,0.157313 -0.305157,-3.353297 1.443401,-3.857838 -0.529939,-4.30911 -5.179376,-1.332638 -1.7169,3.232256 0.358645,4.497284 1.697231,2.568629 0.393161,2.298395 -2.888522,3.145972 -2.56012,4.017477 5.789447,6.894362 0.139351,-3.177988 -3.728322,-3.651516 3.057483,-3.383385 z"
         id="path6786"
         sodipodi:nodetypes="cccccccccccccccccccccccccccccccccccccc" /><path
         style="fill:#653824;fill-opacity:1;stroke:none;stroke-width:0.130477;stroke-linecap:round;stroke-linejoin:round;stroke-opacity:1"
         d="m 23.968788,90.286975 2.318051,-2.033697 2.724092,1.351578 0.480585,3.751806 2.822821,9.540478 2.367257,1.74034 12.985508,1.7865 17.59909,-0.14312 30.953293,-3.04353 24.313895,-7.596057 17.02445,-9.899706 7.53814,-5.317373 2.75358,3.64194 -2.32003,16.100686 -2.26088,11.72575 -4.89686,8.76407 -5.43855,2.63911 -29.93902,4.08778 H 88.842093 L 61.37714,127.57519 47.135698,126.16114 37.41723,121.54993 31.097763,110.37491 28.473566,98.185181 27.573107,95.882074 26.593368,95.513837 24.10779,94.355539 23.72463,91.324505 Z"
         id="path5025"
         sodipodi:nodetypes="ccccccccccccccccccccccccccccc" /><path
         id="path5027"
         style="fill:#424c2f;fill-opacity:1;stroke:none;stroke-width:0.224666;stroke-linecap:round;stroke-linejoin:round;stroke-opacity:1"
         d="m 130.07371,119.33225 57.86468,109.73904 h 6.81251 c 22.75127,0 41.06726,-18.31599 41.06726,-41.06726 v -66.91116 0 z"
         sodipodi:nodetypes="ccssccc" /><path
         id="path8691"
         style="fill:#b3cde5;fill-opacity:1;stroke:none;stroke-width:0.119062;stroke-linecap:round;stroke-linejoin:round;stroke-opacity:1"
         d="m 122.13259,124.58464 -15.53549,11.17452 -11.061336,-6.91483 -28.459762,4.11913 32.009933,7.32772 19.285125,13.56713 34.89555,9.45937 -12.41888,-23.79958 -5.97638,-13.05812 z m -55.056588,8.37882 -6.429582,-2.69958 -30.559891,1.55805 14.623913,18.49654 z" /><path
         id="path5677"
         style="fill:#bbc7a4;fill-opacity:1;stroke:none;stroke-width:0.226212;stroke-linecap:round;stroke-linejoin:round;stroke-opacity:1"
         d="m 135.27563,121.76523 100.54253,65.02595 1.8e-4,-67.71334 z"
         sodipodi:nodetypes="cccc" /><path
         style="fill:#f9ecf2;fill-opacity:1;stroke:none;stroke-width:0.216394;stroke-linecap:round;stroke-linejoin:round;stroke-opacity:1"
         d="M 86.612325,48.472303 83.904087,59.234504 73.353307,61.91638 63.219856,52.05514 Z"
         id="path6427"
         sodipodi:nodetypes="ccccc" /><path
         style="fill:#57321a;fill-opacity:1;stroke:none;stroke-width:0.201966;stroke-linecap:round;stroke-linejoin:round;stroke-opacity:1"
         d="M 18.087166,55.968533 132.09928,38.900719 132.00893,41.519271 17.823251,59.008173 Z"
         id="path6419"
         sodipodi:nodetypes="ccccc" /><path
         style="fill:#fefcfd;fill-opacity:1;stroke:none;stroke-width:0.216394;stroke-linecap:round;stroke-linejoin:round;stroke-opacity:1"
         d="M 103.92844,45.820134 102.75325,56.754767 86.901305,59.008173 80.53597,49.40297 Z"
         id="path6425"
         sodipodi:nodetypes="ccccc" /><path
         style="fill:#f9ecf2;fill-opacity:1;stroke:none;stroke-width:0.216394;stroke-linecap:round;stroke-linejoin:round;stroke-opacity:1"
         d="m 120.3127,43.31069 -1.37131,9.916103 -11.88771,3.527974 -10.133459,-9.86124 z"
         id="path6423"
         sodipodi:nodetypes="ccccc" /><path
         style="fill:#fefcfd;fill-opacity:1;stroke:none;stroke-width:0.216394;stroke-linecap:round;stroke-linejoin:round;stroke-opacity:1"
         d="m 132.00893,41.519271 -2.70824,10.762201 -10.55079,2.681874 -10.13344,-9.861239 z"
         id="path6421"
         sodipodi:nodetypes="ccccc" /><path
         style="fill:#ffffff;fill-opacity:1;stroke:none;stroke-width:0.171398;stroke-linecap:round;stroke-linejoin:round;stroke-opacity:1"
         d="m 80.426451,87.59926 -7.432494,3.849646 0.697705,9.445574 7.076545,-7.053338 z"
         id="path6842" /><path
         style="fill:#ffffff;fill-opacity:1;stroke:none;stroke-width:0.171398;stroke-linecap:round;stroke-linejoin:round;stroke-opacity:1"
         d="m 80.296278,72.266376 -7.534764,10.732558 0.09427,2.68334 7.440501,-8.911969 z"
         id="path6952"
         sodipodi:nodetypes="ccccc" /><path
         style="fill:#ffffff;fill-opacity:1;stroke:none;stroke-width:0.171398;stroke-linecap:round;stroke-linejoin:round;stroke-opacity:1"
         d="m 72.554766,74.993992 7.900053,7.50882 0.113487,3.684084 -8.269977,-8.493148 0.765541,-0.714552 z"
         id="path6954" /><path
         style="fill:#57321a;fill-opacity:1;stroke:none;stroke-width:0.151141;stroke-linecap:round;stroke-linejoin:round;stroke-opacity:1"
         d="m 77.441963,65.68454 -2.99766,0.188389 -2.145974,0.368321 -0.669556,2.210319 -0.72444,3.629873 -0.358645,-4.497284 1.716898,-3.232257 z"
         id="path6956"
         sodipodi:nodetypes="cccccccc" /><path
         id="path11148"
         style="fill:#3e7cb6;fill-opacity:1;stroke:none;stroke-width:0.119062;stroke-linecap:round;stroke-linejoin:round;stroke-opacity:1"
         d="m 25.262534,146.17609 -7.793323,11.93157 0.0015,25.85424 22.763985,-12.10882 13.301514,1.64744 17.836637,12.46849 53.051023,18.11259 h 50.68477 l -16.1029,-29.87983 -37.80647,-1.38855 -0.006,-0.061 L 91.137226,161.84746 66.610557,146.72331 45.563263,157.5702 Z" /><path
         id="path11204"
         style="fill:#5891c6;fill-opacity:1;stroke:none;stroke-width:0.119062;stroke-linecap:round;stroke-linejoin:round;stroke-opacity:1"
         d="m 17.470761,120.05934 -0.0015,38.04832 7.793323,-11.93157 20.300569,11.39414 21.047294,-10.84689 24.526669,15.12415 30.965554,12.35428 h 36.90317 l -5.73918,-10.88409 -40.98458,-13.74283 -13.196095,-9.28367 -32.009933,-7.32772 -22.36556,17.35501 -14.623913,-18.49654 z" /><path
         style="fill:#592178;fill-opacity:1;stroke:none;stroke-width:0.291293;stroke-linecap:round;stroke-linejoin:round;stroke-opacity:1"
         d="m 195.39456,148.784 17.51869,-14.34899 -17.58667,-27.18405 -11.31839,0.96091 -1.93069,12.01142 -50.12693,-3.59317 -15.28478,46.252 -53.614058,8.11554 10.676272,6.97335 -2.355129,7.99801 11.539021,7.06729 3.085906,13.78682 15.129888,4.51972 10.61421,10.79145 14.50629,1.5492 -5.71251,-61.38716 0.37802,4.06228 15.60615,-37.41029 z"
         id="path7848"
         sodipodi:nodetypes="ccccccccccccccccccc" /><path
         style="fill:#6c3c26;fill-opacity:1;stroke:none;stroke-width:0.119062;stroke-linecap:round;stroke-linejoin:round;stroke-opacity:1"
         d="m 146.22142,95.365093 -1.59516,9.486367 -22.40179,9.77233 -22.335046,7.92035 -25.92822,2.10462 -32.529351,-4.34059 -5.609531,-1.57859 -1.564825,-2.76716 29.326921,3.91796 33.954577,-2.63306 26.673375,-8.80158 z"
         id="path19055"
         sodipodi:nodetypes="cccccccccccc" /><path
         id="path10697"
         style="fill:#f0f5fa;fill-opacity:1;stroke:none;stroke-width:0.119062;stroke-linecap:round;stroke-linejoin:round;stroke-opacity:1"
         d="m 147.0303,112.16886 -17.08527,0.0429 -13.92421,8.75605 -6.08232,-3.807 -14.415139,2.8391 -13.890108,6.32985 -6.173783,-6.35775 -13.510287,-1.92702 -15.931327,6.88847 -8.600509,-3.38377 -0.745174,-1.49035 c 0,0 -19.405905,0.0595 -19.201412,0 0.204492,-0.0595 12.615768,11.76259 12.615768,11.76259 l 30.559891,-1.55805 6.429582,2.69958 28.459762,-4.11913 11.061336,6.91483 15.50552,-10.98486 14.41721,4.1739 z" /><path
         style="fill:#f3ebd5;fill-opacity:1;stroke:none;stroke-width:0.291293;stroke-linecap:round;stroke-linejoin:round;stroke-opacity:1"
         d="m 195.32658,107.25096 -5.15097,-35.68765 -5.72442,-10.023871 -1.85764,-13.205176 -12.87268,-8.138539 -6.96173,9.233303 0.48203,5.475093 -1.10339,1.807458 2.22391,0.812597 1.81709,3.323101 1.07239,3.279864 7.13651,1.237906 -1.37698,6.37273 -22.04078,3.507148 -24.78164,-9.269139 -0.36625,-1.250294 -3.19938,-2.171509 1.92391,4.051197 -4.67176,-1.778851 -1.77823,-0.141982 -0.59352,0.900659 0.86741,1.843135 33.45516,12.829229 22.35862,-0.912381 v 0 l -0.94463,5.956201 7.05128,4.062687 3.71756,18.848024 z"
         id="path7850"
         sodipodi:nodetypes="ccccccccccccccccccccccccccccc" /><path
         style="fill:#e8d6aa;fill-opacity:1;stroke:none;stroke-width:0.291293;stroke-linecap:round;stroke-linejoin:round;stroke-opacity:1"
         d="m 183.39834,73.358136 3.60599,-2.174958 3.60507,3.333084 -16.20467,34.112128 -18.11221,-23.365905 -0.42269,-6.611101 2.61573,5.592711 2.05614,2.209842 0.53064,-5.216345 1.13732,-0.317885 0.55411,5.789516 11.45223,14.816597 2.53343,-15.049667 z"
         id="path7908"
         sodipodi:nodetypes="cccccccccccccc" /><path
         style="fill:#7b2ea6;fill-opacity:1;stroke:none;stroke-width:0.119062;stroke-linecap:round;stroke-linejoin:round;stroke-opacity:1"
         d="m 120.53568,162.29634 -8.79378,59.83796 14.50629,1.5492 z"
         id="path12798" /><path
         style="fill:#c28ce0;fill-opacity:1;stroke:none;stroke-width:0.119062;stroke-linecap:round;stroke-linejoin:round;stroke-opacity:1"
         d="M 120.53568,162.29634 111.7419,222.1343 101.12769,211.34285 Z"
         id="path12908" /><path
         style="fill:#7d2ea7;fill-opacity:1;stroke:none;stroke-width:0.119062;stroke-linecap:round;stroke-linejoin:round;stroke-opacity:1"
         d="m 85.997801,206.82313 34.537879,-44.52679 -19.40799,49.04651 z"
         id="path13126" /><path
         style="fill:#b36dd9;fill-opacity:1;stroke:none;stroke-width:0.119062;stroke-linecap:round;stroke-linejoin:round;stroke-opacity:1"
         d="M 82.911894,193.03631 120.53568,162.29634 85.997801,206.82313 Z"
         id="path13290" /><path
         style="fill:#75299b;fill-opacity:1;stroke:none;stroke-width:0.119062;stroke-linecap:round;stroke-linejoin:round;stroke-opacity:1"
         d="M 71.372873,185.96902 120.53568,162.29634 82.911892,193.03631 Z"
         id="path14318" /><path
         style="fill:#9939cc;fill-opacity:1;stroke:none;stroke-width:0.119062;stroke-linecap:round;stroke-linejoin:round;stroke-opacity:1"
         d="M 73.728003,177.97101 120.53568,162.29634 71.372873,185.96902 Z"
         id="path15076" /><path
         style="fill:#6f2796;fill-opacity:1;stroke:none;stroke-width:0.119062;stroke-linecap:round;stroke-linejoin:round;stroke-opacity:1"
         d="m 120.53568,162.29634 -57.483947,8.70132 10.67627,6.97335 z"
         id="path16808" /><path
         style="fill:#562074;fill-opacity:1;stroke:none;stroke-width:0.119062;stroke-linecap:round;stroke-linejoin:round;stroke-opacity:1"
         d="m 120.53568,162.29634 14.73995,-39.64556 77.63762,11.78423 -17.51869,14.34899 -58.87471,-19.83567 -15.60615,37.41029 z"
         id="path17182" /><path
         style="fill:#632586;fill-opacity:1;stroke:none;stroke-width:0.119062;stroke-linecap:round;stroke-linejoin:round;stroke-opacity:1"
         d="m 195.32658,107.25096 -1.01469,24.36064 18.60136,2.82341 z"
         id="path17307"
         sodipodi:nodetypes="cccc" /><path
         style="fill:#e8d6aa;fill-opacity:1;stroke:none;stroke-width:0.119062;stroke-linecap:round;stroke-linejoin:round;stroke-opacity:1"
         d="m 164.34609,47.14068 6.31447,6.701801 5.81211,10.110073 4.2561,14.672535 4.49795,19.833166 -1.37068,10.701715 11.47054,-1.90901 -11.37177,-39.298769 z"
         id="path17539"
         sodipodi:nodetypes="ccccccccc" /><path
         style="fill:#000000;fill-opacity:1;stroke:none;stroke-width:0.291293;stroke-linecap:round;stroke-linejoin:round;stroke-opacity:1"
         d="m 169.85713,40.063228 -5.51104,7.077453 7.25638,7.457353 12.35234,13.354157 7.50088,30.084883 3.87089,9.213886 10.55416,26.11662 21.62619,6.9644 6.51843,-3.38863 -23.66046,-23.84669 -13.89165,-30.410517 -1.14667,-15.944994 -10.87539,-5.20171 -1.85764,-13.205196 z"
         id="path7852"
         sodipodi:nodetypes="ccccccccccccccc" /><path
         style="fill:#8f4f33;fill-opacity:1;stroke:none;stroke-width:0.119062;stroke-linecap:round;stroke-linejoin:round;stroke-opacity:1"
         d="m 147.14103,88.983126 -0.91961,6.381967 -22.00905,13.080647 -26.673375,8.80158 -33.954577,2.63306 -15.917375,-2.14412 -13.409546,-1.77384 -3.159734,-5.58751 17.259207,3.87696 15.892198,0.81586 33.24738,-2.38235 24.606282,-8.42674 z"
         id="path18675" /><path
         style="fill:#bc84dd;fill-opacity:1;stroke:none;stroke-width:0.119062;stroke-linecap:round;stroke-linejoin:round;stroke-opacity:1"
         d="m 184.00845,108.2119 11.31813,-0.96094 -1.01469,24.36064 -59.03626,-8.96082 -14.73995,39.64556 -3.86989,0.58578 15.28478,-46.252 50.12693,3.59317 z"
         id="path17363"
         sodipodi:nodetypes="ccccccccc" /><path
         style="fill:#ad5f3d;fill-opacity:1;stroke:none;stroke-width:0.119062;stroke-linecap:round;stroke-linejoin:round;stroke-opacity:1"
         d="m 147.84955,84.066133 -25.6526,15.332284 -25.16337,8.376233 -32.457064,3.51762 -16.10963,-0.30723 -15.046513,-2.90408 -3.376741,-2.60262 -1.570066,-7.29316 -0.900459,-2.303107 -0.979739,-0.368236 -2.485578,-1.158299 -0.38316,-3.031035 0.244158,-1.037529 2.318051,-2.033696 2.724092,1.351576 0.480585,3.751808 2.822821,9.540478 2.367258,1.74034 12.985506,1.7865 17.599091,-0.14312 30.953291,-3.04353 24.313897,-7.596057 17.02445,-9.899706 7.53814,-5.317373 z"
         id="path18425"
         sodipodi:nodetypes="ccccccccccccccccccccccccc" /><path
         style="fill:#9d5737;fill-opacity:1;stroke:none;stroke-width:0.119062;stroke-linecap:round;stroke-linejoin:round;stroke-opacity:1"
         d="m 147.84955,84.066133 -0.70852,4.916995 -25.0382,15.275512 -24.60628,8.42674 -33.247382,2.38235 -15.892198,-0.81586 -17.259207,-3.87696 -1.054131,-4.89657 3.376741,2.60262 15.046513,2.90408 16.10963,0.30723 32.457064,-3.51762 25.16337,-8.376233 z"
         id="path18619" /></g></g></svg>
