<?xml version="1.0" encoding="UTF-8" standalone="no"?>
<!-- Created with Inkscape (http://www.inkscape.org/) -->

<svg
   width="800mm"
   height="200mm"
   viewBox="0 0 800 200"
   version="1.1"
   id="svg5"
   xml:space="preserve"
   inkscape:version="1.2.2 (732a01da63, 2022-12-09, custom)"
   sodipodi:docname="pipeline.svg"
   xmlns:inkscape="http://www.inkscape.org/namespaces/inkscape"
   xmlns:sodipodi="http://sodipodi.sourceforge.net/DTD/sodipodi-0.dtd"
   xmlns="http://www.w3.org/2000/svg"
   xmlns:svg="http://www.w3.org/2000/svg"><sodipodi:namedview
     id="namedview7"
     pagecolor="#ffffff"
     bordercolor="#000000"
     borderopacity="0.25"
     inkscape:showpageshadow="2"
     inkscape:pageopacity="0.0"
     inkscape:pagecheckerboard="0"
     inkscape:deskcolor="#d1d1d1"
     inkscape:document-units="mm"
     showgrid="false"
     inkscape:zoom="0.64693624"
     inkscape:cx="1576.6623"
     inkscape:cy="591.24837"
     inkscape:window-width="3840"
     inkscape:window-height="2096"
     inkscape:window-x="0"
     inkscape:window-y="27"
     inkscape:window-maximized="1"
     inkscape:current-layer="layer1" /><defs
     id="defs2" /><g
     inkscape:label="Layer 1"
     inkscape:groupmode="layer"
     id="layer1"><rect
       style="fill:#ffffff;fill-opacity:1;stroke:none;stroke-width:2.8807;stroke-linecap:round;stroke-linejoin:round;stroke-dasharray:none;stroke-opacity:1"
       id="rect28048"
       width="800"
       height="199.70392"
       x="0.0034463319"
       y="0.14804004"
       ry="0" /><g
       aria-label="Pipeline"
       id="text22052"
       style="font-size:14.2892px;font-family:Ubuntu;-inkscape-font-specification:Ubuntu;fill:#82acd5;stroke-width:0.107168;stroke-linecap:round;stroke-linejoin:round"
       transform="translate(-49.99999)"><path
         d="m 427.42312,27.528234 q 2.08622,0 3.20078,0.800195 1.12884,0.785906 1.12884,2.357718 0,0.857352 -0.31436,1.471788 -0.30007,0.600146 -0.88593,0.985955 -0.57157,0.371519 -1.40034,0.542989 -0.82877,0.171471 -1.87189,0.171471 h -1.10026 v 3.672324 H 424.7939 V 27.77115 q 0.58586,-0.142892 1.30032,-0.185759 0.72875,-0.05716 1.3289,-0.05716 z m 0.11431,1.214582 q -0.88593,0 -1.35747,0.04287 v 3.886662 h 1.04311 q 0.71446,0 1.28603,-0.08573 0.57156,-0.100025 0.95737,-0.314363 0.4001,-0.228627 0.61444,-0.614435 0.21434,-0.385809 0.21434,-0.985955 0,-0.571568 -0.22863,-0.943087 -0.21434,-0.371519 -0.60015,-0.585857 -0.37152,-0.228628 -0.87164,-0.314363 -0.50012,-0.08573 -1.0574,-0.08573 z"
         id="path2652" /><path
         d="M 434.7249,37.530674 H 433.396 V 30.10029 h 1.3289 z m -0.6716,-8.773569 q -0.35723,0 -0.61443,-0.228627 -0.24292,-0.242916 -0.24292,-0.643014 0,-0.400097 0.24292,-0.628725 0.2572,-0.242916 0.61443,-0.242916 0.35723,0 0.60015,0.242916 0.25721,0.228628 0.25721,0.628725 0,0.400098 -0.25721,0.643014 -0.24292,0.228627 -0.60015,0.228627 z"
         id="path2654" /><path
         d="m 442.16954,33.829771 q 0,-1.300317 -0.64301,-2.000488 -0.64301,-0.700171 -1.7147,-0.700171 -0.60015,0 -0.94309,0.04287 -0.32865,0.04287 -0.5287,0.100024 v 4.686858 q 0.24292,0.200049 0.70017,0.385808 0.45725,0.18576 1.00024,0.18576 0.57157,0 0.97167,-0.200049 0.41439,-0.214338 0.67159,-0.571568 0.25721,-0.371519 0.37152,-0.857352 0.11431,-0.500122 0.11431,-1.07169 z m 1.38606,0 q 0,0.843063 -0.22863,1.557523 -0.21434,0.71446 -0.64301,1.228871 -0.42868,0.514411 -1.0574,0.800195 -0.61444,0.285784 -1.41464,0.285784 -0.64301,0 -1.14313,-0.17147 -0.48583,-0.17147 -0.72875,-0.328652 v 2.972154 h -1.3289 v -9.845259 q 0.47155,-0.114313 1.17172,-0.242916 0.71446,-0.142892 1.64326,-0.142892 0.85735,0 1.54323,0.271495 0.68588,0.271494 1.17171,0.771616 0.48584,0.500122 0.74304,1.228872 0.2715,0.71446 0.2715,1.614679 z"
         id="path2656" /><path
         d="m 445.01308,33.829771 q 0,-0.985955 0.28578,-1.714704 0.28579,-0.743038 0.75733,-1.228871 0.47154,-0.485833 1.08598,-0.728749 0.61444,-0.242917 1.25745,-0.242917 1.50037,0 2.30056,0.943088 0.8002,0.928798 0.8002,2.84355 0,0.08574 0,0.228628 0,0.128602 -0.0143,0.242916 h -5.08696 q 0.0857,1.157425 0.67159,1.757572 0.58586,0.600146 1.82902,0.600146 0.70017,0 1.17172,-0.114314 0.48583,-0.128602 0.72875,-0.242916 l 0.18576,1.114558 q -0.24292,0.128602 -0.85736,0.271494 -0.60014,0.142892 -1.37176,0.142892 -0.97167,0 -1.68613,-0.285784 -0.70017,-0.300073 -1.15742,-0.814484 -0.45726,-0.514411 -0.68588,-1.214582 -0.21434,-0.71446 -0.21434,-1.557523 z m 5.10124,-0.728749 q 0.0143,-0.90022 -0.45725,-1.471788 -0.45725,-0.585857 -1.27174,-0.585857 -0.45725,0 -0.81448,0.18576 -0.34294,0.17147 -0.58586,0.457254 -0.24292,0.285784 -0.38581,0.657303 -0.1286,0.37152 -0.17147,0.757328 z"
         id="path2658" /><path
         d="m 455.64422,37.673566 q -1.22887,-0.02858 -1.74329,-0.5287 -0.51441,-0.500122 -0.51441,-1.557523 v -8.916461 l 1.3289,-0.228627 v 8.93075 q 0,0.328651 0.0571,0.542989 0.0572,0.214338 0.18576,0.342941 0.12861,0.128603 0.34295,0.200049 0.21433,0.05716 0.5287,0.100024 z"
         id="path2660" /><path
         d="m 458.64493,37.530674 h -1.32889 V 30.10029 h 1.32889 z m -0.67159,-8.773569 q -0.35723,0 -0.61444,-0.228627 -0.24291,-0.242916 -0.24291,-0.643014 0,-0.400097 0.24291,-0.628725 0.25721,-0.242916 0.61444,-0.242916 0.35723,0 0.60015,0.242916 0.2572,0.228628 0.2572,0.628725 0,0.400098 -0.2572,0.643014 -0.24292,0.228627 -0.60015,0.228627 z"
         id="path2662" /><path
         d="m 460.93118,30.314628 q 0.45725,-0.114314 1.21458,-0.242916 0.75733,-0.128603 1.74328,-0.128603 0.88593,0 1.47179,0.257205 0.58586,0.242917 0.9288,0.700171 0.35723,0.442965 0.50012,1.07169 0.14289,0.628725 0.14289,1.386053 v 4.172446 h -1.32889 v -3.886662 q 0,-0.685882 -0.10003,-1.171715 -0.0857,-0.485833 -0.30007,-0.785906 -0.21434,-0.300073 -0.57157,-0.428676 -0.35723,-0.142892 -0.88593,-0.142892 -0.21434,0 -0.44296,0.01429 -0.22863,0.01429 -0.44297,0.04287 -0.20005,0.01429 -0.37152,0.04287 -0.15718,0.02858 -0.22862,0.04287 v 6.272959 h -1.3289 z"
         id="path2664" /><path
         d="m 468.71879,33.829771 q 0,-0.985955 0.28578,-1.714704 0.28578,-0.743038 0.75733,-1.228871 0.47154,-0.485833 1.08598,-0.728749 0.61443,-0.242917 1.25745,-0.242917 1.50036,0 2.30056,0.943088 0.80019,0.928798 0.80019,2.84355 0,0.08574 0,0.228628 0,0.128602 -0.0143,0.242916 h -5.08695 q 0.0857,1.157425 0.67159,1.757572 0.58586,0.600146 1.82902,0.600146 0.70017,0 1.17171,-0.114314 0.48583,-0.128602 0.72875,-0.242916 l 0.18576,1.114558 q -0.24292,0.128602 -0.85735,0.271494 -0.60015,0.142892 -1.37176,0.142892 -0.97167,0 -1.68613,-0.285784 -0.70017,-0.300073 -1.15743,-0.814484 -0.45725,-0.514411 -0.68588,-1.214582 -0.21433,-0.71446 -0.21433,-1.557523 z m 5.10124,-0.728749 q 0.0143,-0.90022 -0.45725,-1.471788 -0.45726,-0.585857 -1.27174,-0.585857 -0.45726,0 -0.81449,0.18576 -0.34294,0.17147 -0.58586,0.457254 -0.24291,0.285784 -0.3858,0.657303 -0.12861,0.37152 -0.17147,0.757328 z"
         id="path2666" /></g><rect
       style="fill:none;fill-opacity:1;stroke:#d3e1f1;stroke-width:2.7383;stroke-linecap:round;stroke-linejoin:round;stroke-dasharray:none;stroke-opacity:1"
       id="rect21565"
       width="510.60693"
       height="114.99609"
       x="146.59351"
       y="47.588909"
       ry="16.64566" /><rect
       style="fill:#fefcfd;fill-opacity:1;stroke:#f9ecf2;stroke-width:2.68474;stroke-linecap:round;stroke-linejoin:round;stroke-dasharray:none;stroke-opacity:1"
       id="rect234"
       width="80.13398"
       height="40.06699"
       x="30.61479"
       y="83.993637"
       ry="20.033495" /><g
       aria-label="Text"
       id="text398"
       style="font-size:17.4788px;font-family:Ubuntu;-inkscape-font-specification:Ubuntu;fill:#dda9b4;stroke-width:0.13109;stroke-linecap:round;stroke-linejoin:round"
       transform="translate(-16.591236)"><path
         d="m 79.564573,97.865639 v 1.468219 H 75.754195 V 109.97845 H 74.058751 V 99.333858 h -3.810378 v -1.468219 z"
         id="path2643" /><path
         d="m 79.774289,105.45144 q 0,-1.20604 0.349576,-2.09746 0.349576,-0.9089 0.926377,-1.50317 0.5768,-0.59428 1.328389,-0.89142 0.751588,-0.29714 1.538134,-0.29714 1.835274,0 2.814087,1.1536 0.978813,1.13612 0.978813,3.47828 0,0.10487 0,0.27966 0,0.15731 -0.01748,0.29714 h -6.222453 q 0.104873,1.41578 0.821504,2.14989 0.71663,0.73411 2.237286,0.73411 0.856461,0 1.433262,-0.13983 0.594279,-0.15731 0.891418,-0.29714 l 0.227225,1.36335 q -0.29714,0.15731 -1.048728,0.33209 -0.73411,0.17479 -1.677965,0.17479 -1.188558,0 -2.062498,-0.34957 -0.856462,-0.36706 -1.415783,-0.9963 -0.559322,-0.62923 -0.838983,-1.48569 -0.262182,-0.87394 -0.262181,-1.90519 z m 6.239932,-0.89142 q 0.01748,-1.10117 -0.559322,-1.80032 -0.559321,-0.71663 -1.555613,-0.71663 -0.559321,0 -0.996291,0.22723 -0.419492,0.20974 -0.716631,0.55932 -0.29714,0.34957 -0.471928,0.80402 -0.157309,0.45445 -0.209745,0.92638 z"
         id="path2645" /><path
         d="m 95.487697,109.97845 q -0.192267,-0.38454 -0.471928,-0.85646 -0.27966,-0.47193 -0.611758,-0.96134 -0.332097,-0.50688 -0.681673,-0.99629 -0.349576,-0.48941 -0.681673,-0.92638 -0.332097,0.43697 -0.681673,0.94386 -0.349576,0.48941 -0.681673,0.99629 -0.314619,0.48941 -0.59428,0.96133 -0.27966,0.47193 -0.471927,0.83899 h -1.677965 q 0.611758,-1.18856 1.45074,-2.41208 0.856462,-1.24099 1.695444,-2.35964 l -3.006354,-4.31726 h 1.835274 l 2.167372,3.18114 2.18485,-3.18114 h 1.730401 l -2.936439,4.21239 q 0.838983,1.13612 1.712923,2.41208 0.891419,1.25847 1.503177,2.46451 z"
         id="path2647" /><path
         d="m 100.50411,100.88947 h 3.44332 v 1.36335 h -3.44332 v 4.19491 q 0,0.68167 0.10487,1.13612 0.10487,0.43697 0.31462,0.69915 0.20974,0.24471 0.52436,0.34958 0.31462,0.10487 0.73411,0.10487 0.73411,0 1.17108,-0.15731 0.45445,-0.17479 0.62924,-0.2447 l 0.31462,1.34587 q -0.24471,0.12235 -0.85646,0.29714 -0.61176,0.19226 -1.39831,0.19226 -0.92637,0 -1.53813,-0.22722 -0.594282,-0.2447 -0.961337,-0.71663 -0.367054,-0.47193 -0.524364,-1.1536 -0.13983,-0.69915 -0.13983,-1.60805 v -8.110165 l 1.625531,-0.279661 z"
         id="path2649" /></g><path
       id="rect9766"
       style="fill:#f0cfde;fill-opacity:1;stroke:#d577a2;stroke-width:3.158;stroke-linecap:round;stroke-linejoin:round;stroke-dasharray:none;stroke-opacity:1"
       d="m 170.82058,82.606543 v 5.4e-4 l 5.21078,11.765754 5.2113,11.765773 -5.2113,11.76576 -5.21078,11.76577 v 5.4e-4 h 104.03319 v -5.4e-4 l 5.21131,-11.76577 5.2113,-11.76576 -5.2113,-11.765773 -5.21131,-11.765754 v -5.4e-4 z"
       sodipodi:nodetypes="ccccccccccccccc" /><g
       aria-label="Transformer"
       id="text10985"
       style="font-size:14.2892px;font-family:Ubuntu;-inkscape-font-specification:Ubuntu;stroke-width:0.107168;stroke-linecap:round;stroke-linejoin:round"
       transform="translate(-0.3256364)"><path
         d="m 198.93461,100.10003 v 1.20029 h -3.11504 v 8.70212 h -1.38605 v -8.70212 h -3.11505 v -1.20029 z"
         id="path2669" /><path
         d="m 202.4783,102.41488 q 0.17147,0 0.38581,0.0286 0.22863,0.0143 0.44297,0.0572 0.21433,0.0286 0.38581,0.0714 0.18575,0.0286 0.27149,0.0572 l -0.22863,1.15743 q -0.15718,-0.0572 -0.5287,-0.1286 -0.35723,-0.0857 -0.9288,-0.0857 -0.37151,0 -0.74303,0.0857 -0.35723,0.0714 -0.47155,0.10002 v 6.24438 h -1.32889 v -7.11602 q 0.47154,-0.17147 1.17171,-0.31436 0.70017,-0.15718 1.57181,-0.15718 z"
         id="path2671" /><path
         d="m 207.7653,109.04507 q 0.47155,0 0.82878,-0.0143 0.37152,-0.0286 0.61443,-0.0857 v -2.21483 q -0.14289,-0.0714 -0.47154,-0.11431 -0.31436,-0.0572 -0.77162,-0.0572 -0.30007,0 -0.64301,0.0429 -0.32865,0.0429 -0.61444,0.18576 -0.27149,0.1286 -0.45725,0.37152 -0.18576,0.22863 -0.18576,0.61444 0,0.71446 0.45725,1.00024 0.45726,0.2715 1.24316,0.2715 z m -0.11431,-6.65877 q 0.80019,0 1.34318,0.21434 0.55728,0.20004 0.88593,0.58585 0.34294,0.37152 0.48584,0.90022 0.14289,0.51441 0.14289,1.14314 v 4.64399 q -0.17147,0.0286 -0.48583,0.0857 -0.30008,0.0429 -0.68589,0.0857 -0.3858,0.0429 -0.84306,0.0714 -0.44296,0.0429 -0.88593,0.0429 -0.62872,0 -1.15742,-0.1286 -0.5287,-0.1286 -0.91451,-0.4001 -0.38581,-0.28578 -0.60015,-0.74304 -0.21434,-0.45725 -0.21434,-1.10026 0,-0.61444 0.24292,-1.05741 0.2572,-0.44296 0.68588,-0.71446 0.42868,-0.27149 1.00024,-0.40009 0.57157,-0.12861 1.2003,-0.12861 0.20005,0 0.41438,0.0286 0.21434,0.0143 0.4001,0.0572 0.20005,0.0286 0.34294,0.0572 0.14289,0.0286 0.20005,0.0429 v -0.37152 q 0,-0.32865 -0.0714,-0.64301 -0.0714,-0.32865 -0.25721,-0.57157 -0.18576,-0.2572 -0.51441,-0.40009 -0.31436,-0.15719 -0.82877,-0.15719 -0.65731,0 -1.15743,0.10003 -0.48583,0.0857 -0.72875,0.18576 l -0.15718,-1.10027 q 0.25721,-0.11431 0.85735,-0.21434 0.60015,-0.11431 1.30032,-0.11431 z"
         id="path2673" /><path
         d="m 212.70936,102.7864 q 0.45725,-0.11432 1.21458,-0.24292 0.75733,-0.1286 1.74328,-0.1286 0.88593,0 1.47179,0.2572 0.58586,0.24292 0.9288,0.70017 0.35723,0.44297 0.50012,1.07169 0.14289,0.62873 0.14289,1.38606 v 4.17244 h -1.32889 v -3.88666 q 0,-0.68588 -0.10003,-1.17172 -0.0857,-0.48583 -0.30007,-0.7859 -0.21434,-0.30007 -0.57157,-0.42868 -0.35723,-0.14289 -0.88593,-0.14289 -0.21434,0 -0.44297,0.0143 -0.22862,0.0143 -0.44296,0.0429 -0.20005,0.0143 -0.37152,0.0429 -0.15718,0.0286 -0.22863,0.0429 v 6.27296 h -1.32889 z"
         id="path2675" /><path
         d="m 222.64034,109.04507 q 0.81449,0 1.2003,-0.21434 0.40009,-0.21434 0.40009,-0.68588 0,-0.48584 -0.38581,-0.77162 -0.3858,-0.28579 -1.27173,-0.64302 -0.42868,-0.17147 -0.82878,-0.34294 -0.38581,-0.18576 -0.67159,-0.42867 -0.28578,-0.24292 -0.45725,-0.58586 -0.17148,-0.34294 -0.17148,-0.84306 0,-0.98596 0.72875,-1.55752 0.72875,-0.58586 1.9862,-0.58586 0.31437,0 0.62873,0.0429 0.31436,0.0286 0.58585,0.0857 0.2715,0.0429 0.47155,0.10003 0.21434,0.0571 0.32865,0.10002 l -0.24292,1.14314 q -0.21433,-0.11432 -0.67159,-0.22863 -0.45725,-0.1286 -1.10027,-0.1286 -0.55728,0 -0.97166,0.22862 -0.41439,0.21434 -0.41439,0.68588 0,0.24292 0.0857,0.42868 0.10002,0.18576 0.28578,0.34294 0.20005,0.14289 0.48583,0.2715 0.28579,0.1286 0.68588,0.27149 0.5287,0.20005 0.94309,0.4001 0.41439,0.18576 0.70017,0.44296 0.30008,0.25721 0.45726,0.62873 0.15718,0.35723 0.15718,0.88593 0,1.02882 -0.77162,1.55752 -0.75733,0.5287 -2.17196,0.5287 -0.98595,0 -1.54323,-0.17147 -0.55728,-0.15718 -0.75733,-0.24291 l 0.24292,-1.14314 q 0.22862,0.0857 0.72875,0.2572 0.50012,0.17148 1.32889,0.17148 z"
         id="path2677" /><path
         d="m 230.18503,98.914022 q 0.58585,0 1.00024,0.08574 0.42868,0.08573 0.60015,0.157181 l -0.24292,1.143127 q -0.17147,-0.0857 -0.48583,-0.15718 -0.31437,-0.0857 -0.77162,-0.0857 -0.9288,0 -1.30032,0.51441 -0.37152,0.50012 -0.37152,1.35747 v 0.64302 h 2.85784 v 1.11456 h -2.85784 v 6.31582 h -1.32889 v -8.10197 q 0,-1.42892 0.70017,-2.200538 0.70017,-0.785906 2.20054,-0.785906 z"
         id="path2679" /><path
         d="m 239.35869,106.28725 q 0,0.88593 -0.25721,1.60039 -0.2572,0.71446 -0.72875,1.22887 -0.45725,0.51441 -1.10026,0.8002 -0.64302,0.27149 -1.40035,0.27149 -0.75732,0 -1.40034,-0.27149 -0.64301,-0.28579 -1.11455,-0.8002 -0.45726,-0.51441 -0.71446,-1.22887 -0.25721,-0.71446 -0.25721,-1.60039 0,-0.87164 0.25721,-1.5861 0.2572,-0.72875 0.71446,-1.24316 0.47154,-0.51441 1.11455,-0.78591 0.64302,-0.28578 1.40034,-0.28578 0.75733,0 1.40035,0.28578 0.64301,0.2715 1.10026,0.78591 0.47155,0.51441 0.72875,1.24316 0.25721,0.71446 0.25721,1.5861 z m -1.38605,0 q 0,-1.25745 -0.57157,-1.9862 -0.55728,-0.74304 -1.52895,-0.74304 -0.97166,0 -1.54323,0.74304 -0.55728,0.72875 -0.55728,1.9862 0,1.25745 0.55728,2.00049 0.57157,0.72875 1.54323,0.72875 0.97167,0 1.52895,-0.72875 0.57157,-0.74304 0.57157,-2.00049 z"
         id="path2681" /><path
         d="m 243.97408,102.41488 q 0.17147,0 0.3858,0.0286 0.22863,0.0143 0.44297,0.0572 0.21434,0.0286 0.38581,0.0714 0.18576,0.0286 0.27149,0.0572 l -0.22862,1.15743 q -0.15719,-0.0572 -0.5287,-0.1286 -0.35723,-0.0857 -0.9288,-0.0857 -0.37152,0 -0.74304,0.0857 -0.35723,0.0714 -0.47154,0.10002 v 6.24438 h -1.3289 v -7.11602 q 0.47154,-0.17147 1.17171,-0.31436 0.70017,-0.15718 1.57182,-0.15718 z"
         id="path2683" /><path
         d="m 246.74617,102.7864 q 0.45726,-0.11432 1.2003,-0.24292 0.75733,-0.1286 1.74328,-0.1286 0.71446,0 1.20029,0.20005 0.48584,0.18575 0.81449,0.55727 0.10002,-0.0714 0.31436,-0.20004 0.21434,-0.12861 0.5287,-0.24292 0.31436,-0.1286 0.70017,-0.21434 0.38581,-0.10002 0.82877,-0.10002 0.85736,0 1.40035,0.2572 0.54299,0.24292 0.84306,0.70017 0.31436,0.45726 0.41439,1.08598 0.11431,0.62873 0.11431,1.37177 v 4.17244 h -1.3289 v -3.88666 q 0,-0.6573 -0.0714,-1.12885 -0.0572,-0.47154 -0.24292,-0.7859 -0.17147,-0.31437 -0.48583,-0.45726 -0.30007,-0.15718 -0.78591,-0.15718 -0.67159,0 -1.11456,0.18576 -0.42867,0.17147 -0.58585,0.31436 0.11431,0.37152 0.17147,0.81449 0.0572,0.44296 0.0572,0.9288 v 4.17244 h -1.32889 v -3.88666 q 0,-0.6573 -0.0714,-1.12885 -0.0714,-0.47154 -0.2572,-0.7859 -0.17147,-0.31437 -0.48584,-0.45726 -0.30007,-0.15718 -0.77161,-0.15718 -0.20005,0 -0.42868,0.0143 -0.22863,0.0143 -0.44296,0.0429 -0.20005,0.0143 -0.37152,0.0429 -0.17147,0.0286 -0.22863,0.0429 v 6.27296 h -1.3289 z"
         id="path2685" /><path
         d="m 258.63476,106.30154 q 0,-0.98596 0.28579,-1.71471 0.28578,-0.74303 0.75732,-1.22887 0.47155,-0.48583 1.08598,-0.72875 0.61444,-0.24291 1.25745,-0.24291 1.50037,0 2.30056,0.94309 0.8002,0.92879 0.8002,2.84355 0,0.0857 0,0.22862 0,0.12861 -0.0143,0.24292 h -5.08695 q 0.0857,1.15742 0.67159,1.75757 0.58585,0.60015 1.82902,0.60015 0.70017,0 1.17171,-0.11432 0.48583,-0.1286 0.72875,-0.24291 l 0.18576,1.11456 q -0.24292,0.1286 -0.85735,0.27149 -0.60015,0.14289 -1.37177,0.14289 -0.97166,0 -1.68612,-0.28578 -0.70017,-0.30008 -1.15743,-0.81449 -0.45725,-0.51441 -0.68588,-1.21458 -0.21434,-0.71446 -0.21434,-1.55752 z m 5.10125,-0.72875 q 0.0143,-0.90022 -0.45726,-1.47179 -0.45725,-0.58586 -1.27174,-0.58586 -0.45725,0 -0.81448,0.18576 -0.34294,0.17147 -0.58586,0.45726 -0.24291,0.28578 -0.38581,0.6573 -0.1286,0.37152 -0.17147,0.75733 z"
         id="path2687" /><path
         d="m 269.78031,102.41488 q 0.17147,0 0.38581,0.0286 0.22862,0.0143 0.44296,0.0572 0.21434,0.0286 0.38581,0.0714 0.18576,0.0286 0.2715,0.0572 l -0.22863,1.15743 q -0.15718,-0.0572 -0.5287,-0.1286 -0.35723,-0.0857 -0.9288,-0.0857 -0.37152,0 -0.74304,0.0857 -0.35723,0.0714 -0.47154,0.10002 v 6.24438 h -1.3289 v -7.11602 q 0.47155,-0.17147 1.17172,-0.31436 0.70017,-0.15718 1.57181,-0.15718 z"
         id="path2689" /></g><path
       id="path13997"
       style="fill:#bc84dd;fill-opacity:1;stroke:#562074;stroke-width:3.158;stroke-linecap:round;stroke-linejoin:round;stroke-dasharray:none;stroke-opacity:1"
       d="m 292.27337,82.606543 v 5.4e-4 l 5.21078,11.765754 5.2113,11.765773 -5.2113,11.76576 -5.21078,11.76577 v 5.4e-4 h 69.10819 v -5.4e-4 l 5.21131,-11.76577 5.2113,-11.76576 -5.2113,-11.765773 -5.21131,-11.765754 v -5.4e-4 z"
       sodipodi:nodetypes="ccccccccccccccc" /><g
       aria-label="Parser"
       id="text14001"
       style="font-size:14.2892px;font-family:Ubuntu;-inkscape-font-specification:Ubuntu;stroke-width:0.107168;stroke-linecap:round;stroke-linejoin:round"
       transform="translate(-83.408761)"><path
         d="m 401.60027,100 q 2.08622,0 3.20078,0.8002 1.12885,0.7859 1.12885,2.35771 0,0.85736 -0.31436,1.47179 -0.30008,0.60015 -0.88593,0.98596 -0.57157,0.37152 -1.40035,0.54299 -0.82877,0.17147 -1.87188,0.17147 h -1.10027 v 3.67232 h -1.38605 v -9.75952 q 0.58586,-0.14289 1.30032,-0.18576 Q 401.00013,100 401.60027,100 Z m 0.11432,1.21458 q -0.88594,0 -1.35748,0.0429 v 3.88666 h 1.04311 q 0.71446,0 1.28603,-0.0857 0.57157,-0.10003 0.95738,-0.31436 0.40009,-0.22863 0.61443,-0.61444 0.21434,-0.38581 0.21434,-0.98595 0,-0.57157 -0.22863,-0.94309 -0.21433,-0.37152 -0.60014,-0.58586 -0.37152,-0.22863 -0.87164,-0.31436 -0.50013,-0.0857 -1.0574,-0.0857 z"
         id="path2705" /><path
         d="m 409.81654,109.04507 q 0.47155,0 0.82878,-0.0143 0.37152,-0.0286 0.61443,-0.0857 v -2.21483 q -0.14289,-0.0714 -0.47154,-0.11431 -0.31436,-0.0572 -0.77162,-0.0572 -0.30007,0 -0.64301,0.0429 -0.32865,0.0429 -0.61444,0.18576 -0.27149,0.1286 -0.45725,0.37152 -0.18576,0.22863 -0.18576,0.61444 0,0.71446 0.45725,1.00024 0.45726,0.2715 1.24316,0.2715 z m -0.11431,-6.65877 q 0.8002,0 1.34319,0.21434 0.55727,0.20004 0.88593,0.58585 0.34294,0.37152 0.48583,0.90022 0.14289,0.51441 0.14289,1.14314 v 4.64399 q -0.17147,0.0286 -0.48583,0.0857 -0.30008,0.0429 -0.68588,0.0857 -0.38581,0.0429 -0.84307,0.0714 -0.44296,0.0429 -0.88593,0.0429 -0.62872,0 -1.15742,-0.1286 -0.5287,-0.1286 -0.91451,-0.4001 -0.38581,-0.28578 -0.60015,-0.74304 -0.21434,-0.45725 -0.21434,-1.10026 0,-0.61444 0.24292,-1.05741 0.25721,-0.44296 0.68588,-0.71446 0.42868,-0.27149 1.00025,-0.40009 0.57156,-0.12861 1.20029,-0.12861 0.20005,0 0.41439,0.0286 0.21433,0.0143 0.40009,0.0572 0.20005,0.0286 0.34294,0.0572 0.1429,0.0286 0.20005,0.0429 v -0.37152 q 0,-0.32865 -0.0714,-0.64301 -0.0715,-0.32865 -0.25721,-0.57157 -0.18576,-0.2572 -0.51441,-0.40009 -0.31436,-0.15719 -0.82877,-0.15719 -0.65731,0 -1.15743,0.10003 -0.48583,0.0857 -0.72875,0.18576 l -0.15718,-1.10027 q 0.25721,-0.11431 0.85735,-0.21434 0.60015,-0.11431 1.30032,-0.11431 z"
         id="path2707" /><path
         d="m 417.50412,102.41488 q 0.17147,0 0.38581,0.0286 0.22863,0.0143 0.44297,0.0572 0.21434,0.0286 0.38581,0.0714 0.18576,0.0286 0.27149,0.0572 l -0.22863,1.15743 q -0.15718,-0.0572 -0.5287,-0.1286 -0.35723,-0.0857 -0.92879,-0.0857 -0.37152,0 -0.74304,0.0857 -0.35723,0.0714 -0.47155,0.10002 v 6.24438 h -1.32889 v -7.11602 q 0.47154,-0.17147 1.17171,-0.31436 0.70017,-0.15718 1.57181,-0.15718 z"
         id="path2709" /><path
         d="m 422.00522,109.04507 q 0.81448,0 1.20029,-0.21434 0.4001,-0.21434 0.4001,-0.68588 0,-0.48584 -0.38581,-0.77162 -0.38581,-0.28579 -1.27174,-0.64302 -0.42867,-0.17147 -0.82877,-0.34294 -0.38581,-0.18576 -0.67159,-0.42867 -0.28579,-0.24292 -0.45726,-0.58586 -0.17147,-0.34294 -0.17147,-0.84306 0,-0.98596 0.72875,-1.55752 0.72875,-0.58586 1.9862,-0.58586 0.31436,0 0.62872,0.0429 0.31437,0.0286 0.58586,0.0857 0.2715,0.0429 0.47154,0.10003 0.21434,0.0571 0.32866,0.10002 l -0.24292,1.14314 q -0.21434,-0.11432 -0.67159,-0.22863 -0.45726,-0.1286 -1.10027,-0.1286 -0.55728,0 -0.97167,0.22862 -0.41438,0.21434 -0.41438,0.68588 0,0.24292 0.0857,0.42868 0.10003,0.18576 0.28579,0.34294 0.20004,0.14289 0.48583,0.2715 0.28578,0.1286 0.68588,0.27149 0.5287,0.20005 0.94309,0.4001 0.41438,0.18576 0.70017,0.44296 0.30007,0.25721 0.45725,0.62873 0.15718,0.35723 0.15718,0.88593 0,1.02882 -0.77161,1.55752 -0.75733,0.5287 -2.17196,0.5287 -0.98596,0 -1.54324,-0.17147 -0.55727,-0.15718 -0.75732,-0.24291 l 0.24291,-1.14314 q 0.22863,0.0857 0.72875,0.2572 0.50012,0.17148 1.3289,0.17148 z"
         id="path2711" /><path
         d="m 426.23481,106.30154 q 0,-0.98596 0.28578,-1.71471 0.28579,-0.74303 0.75733,-1.22887 0.47154,-0.48583 1.08598,-0.72875 0.61444,-0.24291 1.25745,-0.24291 1.50037,0 2.30056,0.94309 0.8002,0.92879 0.8002,2.84355 0,0.0857 0,0.22862 0,0.12861 -0.0143,0.24292 h -5.08696 q 0.0857,1.15742 0.67159,1.75757 0.58586,0.60015 1.82902,0.60015 0.70017,0 1.17172,-0.11432 0.48583,-0.1286 0.72874,-0.24291 l 0.18576,1.11456 q -0.24291,0.1286 -0.85735,0.27149 -0.60014,0.14289 -1.37176,0.14289 -0.97167,0 -1.68613,-0.28578 -0.70017,-0.30008 -1.15742,-0.81449 -0.45726,-0.51441 -0.68588,-1.21458 -0.21434,-0.71446 -0.21434,-1.55752 z m 5.10124,-0.72875 q 0.0143,-0.90022 -0.45725,-1.47179 -0.45726,-0.58586 -1.27174,-0.58586 -0.45725,0 -0.81448,0.18576 -0.34295,0.17147 -0.58586,0.45726 -0.24292,0.28578 -0.38581,0.6573 -0.1286,0.37152 -0.17147,0.75733 z"
         id="path2713" /><path
         d="m 437.38036,102.41488 q 0.17147,0 0.38581,0.0286 0.22862,0.0143 0.44296,0.0572 0.21434,0.0286 0.38581,0.0714 0.18576,0.0286 0.27149,0.0572 l -0.22862,1.15743 q -0.15718,-0.0572 -0.5287,-0.1286 -0.35723,-0.0857 -0.9288,-0.0857 -0.37152,0 -0.74304,0.0857 -0.35723,0.0714 -0.47154,0.10002 v 6.24438 h -1.3289 v -7.11602 q 0.47154,-0.17147 1.17171,-0.31436 0.70018,-0.15718 1.57182,-0.15718 z"
         id="path2715" /></g><path
       id="path14105"
       style="fill:#b3cde5;fill-opacity:1;stroke:#386fa4;stroke-width:3.158;stroke-linecap:round;stroke-linejoin:round;stroke-dasharray:none;stroke-opacity:1"
       d="m 374.96216,82.606543 v 5.4e-4 l 5.21078,11.765754 5.2113,11.765773 -5.2113,11.76576 -5.21078,11.76577 v 5.4e-4 h 119.90819 v -5.4e-4 l 5.21131,-11.76577 5.2113,-11.76576 -5.2113,-11.765773 -5.21131,-11.765754 v -5.4e-4 z"
       sodipodi:nodetypes="ccccccccccccccc" /><g
       aria-label="Morphologizer"
       id="text14835"
       style="font-size:14.2892px;font-family:Ubuntu;-inkscape-font-specification:Ubuntu;stroke-width:0.107168;stroke-linecap:round;stroke-linejoin:round"
       transform="translate(-83.408761)"><path
         d="m 484.74843,108.63068 q -0.14289,-0.34294 -0.3858,-0.87164 -0.22863,-0.5287 -0.50013,-1.14314 -0.27149,-0.61443 -0.58585,-1.25745 -0.30008,-0.6573 -0.57157,-1.22887 -0.2715,-0.58586 -0.51441,-1.04311 -0.22863,-0.45726 -0.37152,-0.70017 -0.15718,1.68612 -0.25721,3.65803 -0.10002,1.95762 -0.17147,3.95811 H 480.033 q 0.0572,-1.28603 0.1286,-2.58634 0.0714,-1.31461 0.15718,-2.57206 0.10003,-1.27174 0.20005,-2.47203 0.11432,-1.20029 0.24292,-2.27198 h 1.21458 q 0.38581,0.62872 0.82877,1.48607 0.44297,0.85735 0.88593,1.80044 0.44297,0.9288 0.85736,1.87189 0.41438,0.9288 0.75732,1.70041 0.34294,-0.77161 0.75733,-1.70041 0.41439,-0.94309 0.85735,-1.87189 0.44297,-0.94309 0.88593,-1.80044 0.44297,-0.85735 0.82878,-1.48607 h 1.21458 q 0.48583,4.78688 0.72875,9.90241 h -1.35748 q -0.0714,-2.00049 -0.17147,-3.95811 -0.10002,-1.97191 -0.2572,-3.65803 -0.14289,0.24291 -0.38581,0.70017 -0.22863,0.45725 -0.50012,1.04311 -0.2715,0.57157 -0.58586,1.22887 -0.30007,0.64302 -0.57157,1.25745 -0.27149,0.61444 -0.51441,1.14314 -0.22863,0.5287 -0.37152,0.87164 z"
         id="path2718" /><path
         d="m 499.22337,106.28725 q 0,0.88593 -0.2572,1.60039 -0.25721,0.71446 -0.72875,1.22887 -0.45726,0.51441 -1.10027,0.8002 -0.64302,0.27149 -1.40034,0.27149 -0.75733,0 -1.40034,-0.27149 -0.64302,-0.28579 -1.11456,-0.8002 -0.45726,-0.51441 -0.71446,-1.22887 -0.25721,-0.71446 -0.25721,-1.60039 0,-0.87164 0.25721,-1.5861 0.2572,-0.72875 0.71446,-1.24316 0.47154,-0.51441 1.11456,-0.78591 0.64301,-0.28578 1.40034,-0.28578 0.75732,0 1.40034,0.28578 0.64301,0.2715 1.10027,0.78591 0.47154,0.51441 0.72875,1.24316 0.2572,0.71446 0.2572,1.5861 z m -1.38605,0 q 0,-1.25745 -0.57157,-1.9862 -0.55728,-0.74304 -1.52894,-0.74304 -0.97167,0 -1.54324,0.74304 -0.55728,0.72875 -0.55728,1.9862 0,1.25745 0.55728,2.00049 0.57157,0.72875 1.54324,0.72875 0.97166,0 1.52894,-0.72875 0.57157,-0.74304 0.57157,-2.00049 z"
         id="path2720" /><path
         d="m 503.83876,102.41488 q 0.17147,0 0.38581,0.0286 0.22862,0.0143 0.44296,0.0572 0.21434,0.0286 0.38581,0.0714 0.18576,0.0286 0.27149,0.0572 l -0.22862,1.15743 q -0.15718,-0.0572 -0.5287,-0.1286 -0.35723,-0.0857 -0.9288,-0.0857 -0.37152,0 -0.74304,0.0857 -0.35723,0.0714 -0.47154,0.10002 v 6.24438 h -1.3289 v -7.11602 q 0.47154,-0.17147 1.17172,-0.31436 0.70017,-0.15718 1.57181,-0.15718 z"
         id="path2722" /><path
         d="m 511.76926,106.30154 q 0,-1.30032 -0.64301,-2.00049 -0.64302,-0.70017 -1.71471,-0.70017 -0.60015,0 -0.94309,0.0429 -0.32865,0.0429 -0.5287,0.10002 v 4.68686 q 0.24292,0.20005 0.70017,0.38581 0.45726,0.18576 1.00025,0.18576 0.57157,0 0.97166,-0.20005 0.41439,-0.21434 0.6716,-0.57157 0.2572,-0.37152 0.37152,-0.85735 0.11431,-0.50012 0.11431,-1.07169 z m 1.38605,0 q 0,0.84306 -0.22863,1.55752 -0.21433,0.71446 -0.64301,1.22887 -0.42868,0.51441 -1.0574,0.8002 -0.61444,0.28578 -1.41463,0.28578 -0.64302,0 -1.14314,-0.17147 -0.48583,-0.17147 -0.72875,-0.32865 v 2.97215 h -1.32889 v -9.84526 q 0.47154,-0.11431 1.17171,-0.24291 0.71446,-0.14289 1.64326,-0.14289 0.85735,0 1.54323,0.27149 0.68589,0.2715 1.17172,0.77162 0.48583,0.50012 0.74304,1.22887 0.27149,0.71446 0.27149,1.61468 z"
         id="path2724" /><path
         d="M 515.02718,110.00244 V 99.14265 l 1.3289,-0.228628 v 3.800928 q 0.37152,-0.14289 0.7859,-0.21434 0.42868,-0.0857 0.84306,-0.0857 0.88594,0 1.47179,0.2572 0.58586,0.24292 0.9288,0.70017 0.35723,0.44297 0.50012,1.07169 0.14289,0.62873 0.14289,1.38606 v 4.17244 h -1.32889 v -3.88666 q 0,-0.68588 -0.10003,-1.17172 -0.0857,-0.48583 -0.30007,-0.7859 -0.21434,-0.30007 -0.57157,-0.42868 -0.35723,-0.14289 -0.88593,-0.14289 -0.21433,0 -0.44296,0.0286 -0.22863,0.0286 -0.44297,0.0714 -0.20005,0.0286 -0.37152,0.0714 -0.15718,0.0429 -0.22862,0.0714 v 6.17293 z"
         id="path2726" /><path
         d="m 529.74504,106.28725 q 0,0.88593 -0.2572,1.60039 -0.25721,0.71446 -0.72875,1.22887 -0.45726,0.51441 -1.10027,0.8002 -0.64302,0.27149 -1.40034,0.27149 -0.75733,0 -1.40034,-0.27149 -0.64302,-0.28579 -1.11456,-0.8002 -0.45726,-0.51441 -0.71446,-1.22887 -0.25721,-0.71446 -0.25721,-1.60039 0,-0.87164 0.25721,-1.5861 0.2572,-0.72875 0.71446,-1.24316 0.47154,-0.51441 1.11456,-0.78591 0.64301,-0.28578 1.40034,-0.28578 0.75732,0 1.40034,0.28578 0.64301,0.2715 1.10027,0.78591 0.47154,0.51441 0.72875,1.24316 0.2572,0.71446 0.2572,1.5861 z m -1.38605,0 q 0,-1.25745 -0.57157,-1.9862 -0.55728,-0.74304 -1.52894,-0.74304 -0.97167,0 -1.54324,0.74304 -0.55728,0.72875 -0.55728,1.9862 0,1.25745 0.55728,2.00049 0.57157,0.72875 1.54324,0.72875 0.97166,0 1.52894,-0.72875 0.57157,-0.74304 0.57157,-2.00049 z"
         id="path2728" /><path
         d="m 533.84602,110.14533 q -1.22887,-0.0286 -1.74328,-0.5287 -0.51442,-0.50012 -0.51442,-1.55752 v -8.91646 l 1.3289,-0.228628 v 8.930748 q 0,0.32865 0.0572,0.54299 0.0571,0.21434 0.18576,0.34294 0.1286,0.12861 0.34294,0.20005 0.21433,0.0572 0.5287,0.10003 z"
         id="path2730" /><path
         d="m 542.07658,106.28725 q 0,0.88593 -0.2572,1.60039 -0.25721,0.71446 -0.72875,1.22887 -0.45726,0.51441 -1.10027,0.8002 -0.64302,0.27149 -1.40034,0.27149 -0.75733,0 -1.40035,-0.27149 -0.64301,-0.28579 -1.11455,-0.8002 -0.45726,-0.51441 -0.71446,-1.22887 -0.25721,-0.71446 -0.25721,-1.60039 0,-0.87164 0.25721,-1.5861 0.2572,-0.72875 0.71446,-1.24316 0.47154,-0.51441 1.11455,-0.78591 0.64302,-0.28578 1.40035,-0.28578 0.75732,0 1.40034,0.28578 0.64301,0.2715 1.10027,0.78591 0.47154,0.51441 0.72875,1.24316 0.2572,0.71446 0.2572,1.5861 z m -1.38605,0 q 0,-1.25745 -0.57157,-1.9862 -0.55728,-0.74304 -1.52894,-0.74304 -0.97167,0 -1.54324,0.74304 -0.55728,0.72875 -0.55728,1.9862 0,1.25745 0.55728,2.00049 0.57157,0.72875 1.54324,0.72875 0.97166,0 1.52894,-0.72875 0.57157,-0.74304 0.57157,-2.00049 z"
         id="path2732" /><path
         d="m 548.60672,109.2594 q -0.17147,0.11432 -0.67159,0.30008 -0.48583,0.17147 -1.14314,0.17147 -0.67159,0 -1.27174,-0.21434 -0.58585,-0.21434 -1.02882,-0.6573 -0.44296,-0.45726 -0.70017,-1.12885 -0.25721,-0.67159 -0.25721,-1.60039 0,-0.81449 0.24292,-1.48608 0.24292,-0.68588 0.70017,-1.17171 0.47155,-0.50012 1.14314,-0.77162 0.67159,-0.28578 1.51465,-0.28578 0.9288,0 1.61468,0.14289 0.70017,0.1286 1.17172,0.24291 v 6.63019 q 0,1.71471 -0.88593,2.48632 -0.88593,0.77162 -2.68637,0.77162 -0.70017,0 -1.3289,-0.11431 -0.61443,-0.11432 -1.07169,-0.2715 l 0.24292,-1.15742 q 0.4001,0.15718 0.97166,0.27149 0.58586,0.1286 1.21459,0.1286 1.186,0 1.70041,-0.47154 0.5287,-0.47154 0.5287,-1.50036 z m -0.0143,-5.51563 q -0.20005,-0.0571 -0.54299,-0.10002 -0.32865,-0.0572 -0.90022,-0.0572 -1.07169,0 -1.65754,0.70017 -0.57157,0.70017 -0.57157,1.8576 0,0.64301 0.15718,1.10027 0.17147,0.45725 0.44296,0.75732 0.28579,0.30008 0.64302,0.44297 0.37152,0.14289 0.75733,0.14289 0.5287,0 0.97166,-0.14289 0.44297,-0.15718 0.70017,-0.35723 z"
         id="path2734" /><path
         d="m 553.53648,110.00244 h -1.32889 v -7.43038 h 1.32889 z m -0.67159,-8.77357 q -0.35723,0 -0.61443,-0.22862 -0.24292,-0.24292 -0.24292,-0.64302 0,-0.400096 0.24292,-0.628723 0.2572,-0.242917 0.61443,-0.242917 0.35723,0 0.60015,0.242917 0.2572,0.228627 0.2572,0.628723 0,0.4001 -0.2572,0.64302 -0.24292,0.22862 -0.60015,0.22862 z"
         id="path2736" /><path
         d="m 560.75251,103.5723 q -0.30008,0.32865 -0.8002,0.9288 -0.48583,0.60015 -1.0574,1.3289 -0.55728,0.72874 -1.12885,1.52894 -0.55728,0.80019 -0.98595,1.52894 h 4.08671 v 1.11456 h -5.67281 v -0.88593 q 0.34294,-0.62872 0.84306,-1.38605 0.50012,-0.75733 1.04311,-1.50037 0.55728,-0.75732 1.07169,-1.41463 0.5287,-0.67159 0.91451,-1.12884 h -3.67232 v -1.11456 h 5.35845 z"
         id="path2738" /><path
         d="m 561.86703,106.30154 q 0,-0.98596 0.28579,-1.71471 0.28578,-0.74303 0.75732,-1.22887 0.47155,-0.48583 1.08598,-0.72875 0.61444,-0.24291 1.25745,-0.24291 1.50037,0 2.30056,0.94309 0.8002,0.92879 0.8002,2.84355 0,0.0857 0,0.22862 0,0.12861 -0.0143,0.24292 h -5.08696 q 0.0857,1.15742 0.6716,1.75757 0.58585,0.60015 1.82901,0.60015 0.70018,0 1.17172,-0.11432 0.48583,-0.1286 0.72875,-0.24291 l 0.18576,1.11456 q -0.24292,0.1286 -0.85735,0.27149 -0.60015,0.14289 -1.37177,0.14289 -0.97166,0 -1.68612,-0.28578 -0.70017,-0.30008 -1.15743,-0.81449 -0.45725,-0.51441 -0.68588,-1.21458 -0.21434,-0.71446 -0.21434,-1.55752 z m 5.10125,-0.72875 q 0.0143,-0.90022 -0.45726,-1.47179 -0.45725,-0.58586 -1.27174,-0.58586 -0.45725,0 -0.81448,0.18576 -0.34294,0.17147 -0.58586,0.45726 -0.24291,0.28578 -0.38581,0.6573 -0.1286,0.37152 -0.17147,0.75733 z"
         id="path2740" /><path
         d="m 573.01258,102.41488 q 0.17147,0 0.38581,0.0286 0.22862,0.0143 0.44296,0.0572 0.21434,0.0286 0.38581,0.0714 0.18576,0.0286 0.27149,0.0572 l -0.22862,1.15743 q -0.15718,-0.0572 -0.5287,-0.1286 -0.35723,-0.0857 -0.9288,-0.0857 -0.37152,0 -0.74304,0.0857 -0.35723,0.0714 -0.47154,0.10002 v 6.24438 h -1.3289 v -7.11602 q 0.47155,-0.17147 1.17172,-0.31436 0.70017,-0.15718 1.57181,-0.15718 z"
         id="path2742" /></g><path
       id="path14837"
       style="fill:#f3ebd5;fill-opacity:1;stroke:#e8d6aa;stroke-width:3.158;stroke-linecap:round;stroke-linejoin:round;stroke-dasharray:none;stroke-opacity:1"
       d="m 508.45095,82.606543 v 5.4e-4 l 5.21078,11.765754 5.2113,11.765773 -5.2113,11.76576 -5.21078,11.76577 v 5.4e-4 h 119.90819 v -5.4e-4 l 5.21131,-11.76577 5.2113,-11.76576 -5.2113,-11.765773 -5.21131,-11.765754 v -5.4e-4 z"
       sodipodi:nodetypes="ccccccccccccccc" /><path
       id="path14843"
       style="fill:#bc84dd;fill-opacity:1;stroke:#562074;stroke-width:3.158;stroke-linecap:round;stroke-linejoin:round;stroke-dasharray:none;stroke-opacity:1"
       d="m 508.45095,82.606543 v 5.4e-4 l 5.21078,11.765754 5.2113,11.765773 -5.2113,11.76576 -5.21078,11.76577 v 5.4e-4 h 61.74166 v -5.4e-4 l 5.21131,-11.76577 5.2113,-11.76576 -5.2113,-11.765773 -5.21131,-11.765754 v -5.4e-4 z"
       sodipodi:nodetypes="ccccccccccccccc" /><g
       aria-label="Lemmatizer"
       id="text14841"
       style="font-size:14.2892px;font-family:Ubuntu;-inkscape-font-specification:Ubuntu;stroke-width:0.107168;stroke-linecap:round;stroke-linejoin:round"
       transform="translate(-83.408761)"><path
         d="m 625.36032,70.066652 v 1.200293 h -5.9586 v -9.902416 h 1.38606 v 8.702123 z"
         id="path2767" /><path
         d="m 626.1462,67.566042 q 0,-0.985955 0.28578,-1.714704 0.28579,-0.743038 0.75733,-1.228871 0.47154,-0.485833 1.08598,-0.728749 0.61443,-0.242917 1.25745,-0.242917 1.50036,0 2.30056,0.943088 0.80019,0.928798 0.80019,2.84355 0,0.08574 0,0.228628 0,0.128602 -0.0143,0.242916 h -5.08695 q 0.0857,1.157425 0.67159,1.757572 0.58586,0.600146 1.82902,0.600146 0.70017,0 1.17171,-0.114314 0.48584,-0.128602 0.72875,-0.242916 l 0.18576,1.114557 q -0.24291,0.128603 -0.85735,0.271495 -0.60015,0.142892 -1.37176,0.142892 -0.97167,0 -1.68613,-0.285784 -0.70017,-0.300073 -1.15742,-0.814484 -0.45726,-0.514411 -0.68588,-1.214582 -0.21434,-0.71446 -0.21434,-1.557523 z m 5.10124,-0.728749 q 0.0143,-0.90022 -0.45725,-1.471788 -0.45726,-0.585857 -1.27174,-0.585857 -0.45726,0 -0.81449,0.18576 -0.34294,0.17147 -0.58585,0.457254 -0.24292,0.285784 -0.38581,0.657303 -0.1286,0.37152 -0.17147,0.757328 z"
         id="path2769" /><path
         d="m 634.54822,64.050899 q 0.45725,-0.114314 1.20029,-0.242916 0.75733,-0.128603 1.74328,-0.128603 0.71446,0 1.2003,0.200049 0.48583,0.185759 0.81448,0.557278 0.10003,-0.07145 0.31436,-0.200048 0.21434,-0.128603 0.5287,-0.242917 0.31437,-0.128603 0.70018,-0.214338 0.3858,-0.100024 0.82877,-0.100024 0.85735,0 1.40034,0.257205 0.54299,0.242917 0.84306,0.700171 0.31437,0.457255 0.41439,1.085979 0.11431,0.628725 0.11431,1.371764 v 4.172446 h -1.32889 v -3.886662 q 0,-0.657304 -0.0714,-1.128847 -0.0572,-0.471544 -0.24291,-0.785906 -0.17147,-0.314363 -0.48584,-0.457255 -0.30007,-0.157181 -0.7859,-0.157181 -0.6716,0 -1.11456,0.18576 -0.42868,0.17147 -0.58586,0.314362 0.11432,0.371519 0.17147,0.814485 0.0572,0.442965 0.0572,0.928798 v 4.172446 h -1.3289 v -3.886662 q 0,-0.657304 -0.0714,-1.128847 -0.0715,-0.471544 -0.25721,-0.785906 -0.17147,-0.314363 -0.48583,-0.457255 -0.30007,-0.157181 -0.77162,-0.157181 -0.20005,0 -0.42867,0.01429 -0.22863,0.01429 -0.44297,0.04287 -0.20005,0.01429 -0.37152,0.04287 -0.17147,0.02858 -0.22862,0.04287 v 6.272959 h -1.3289 z"
         id="path2771" /><path
         d="m 646.85119,64.050899 q 0.45726,-0.114314 1.2003,-0.242916 0.75732,-0.128603 1.74328,-0.128603 0.71446,0 1.20029,0.200049 0.48583,0.185759 0.81449,0.557278 0.10002,-0.07145 0.31436,-0.200048 0.21434,-0.128603 0.5287,-0.242917 0.31436,-0.128603 0.70017,-0.214338 0.38581,-0.100024 0.82877,-0.100024 0.85735,0 1.40034,0.257205 0.54299,0.242917 0.84307,0.700171 0.31436,0.457255 0.41438,1.085979 0.11432,0.628725 0.11432,1.371764 v 4.172446 h -1.3289 v -3.886662 q 0,-0.657304 -0.0714,-1.128847 -0.0572,-0.471544 -0.24292,-0.785906 -0.17147,-0.314363 -0.48583,-0.457255 -0.30008,-0.157181 -0.78591,-0.157181 -0.67159,0 -1.11456,0.18576 -0.42867,0.17147 -0.58585,0.314362 0.11431,0.371519 0.17147,0.814485 0.0571,0.442965 0.0571,0.928798 v 4.172446 h -1.32889 v -3.886662 q 0,-0.657304 -0.0715,-1.128847 -0.0714,-0.471544 -0.2572,-0.785906 -0.17147,-0.314363 -0.48584,-0.457255 -0.30007,-0.157181 -0.77161,-0.157181 -0.20005,0 -0.42868,0.01429 -0.22863,0.01429 -0.44296,0.04287 -0.20005,0.01429 -0.37152,0.04287 -0.17147,0.02858 -0.22863,0.04287 v 6.272959 h -1.3289 z"
         id="path2773" /><path
         d="m 661.66907,70.309568 q 0.47154,0 0.82877,-0.01429 0.37152,-0.02858 0.61444,-0.08573 v -2.214826 q -0.1429,-0.07145 -0.47155,-0.114313 -0.31436,-0.05716 -0.77161,-0.05716 -0.30008,0 -0.64302,0.04287 -0.32865,0.04287 -0.61443,0.18576 -0.2715,0.128603 -0.45726,0.371519 -0.18576,0.228627 -0.18576,0.614436 0,0.71446 0.45726,1.000244 0.45725,0.271494 1.24316,0.271494 z m -0.11432,-6.658767 q 0.8002,0 1.34319,0.214338 0.55728,0.200049 0.88593,0.585858 0.34294,0.371519 0.48583,0.900219 0.14289,0.514411 0.14289,1.143136 v 4.64399 q -0.17147,0.02858 -0.48583,0.08573 -0.30007,0.04287 -0.68588,0.08573 -0.38581,0.04287 -0.84306,0.07145 -0.44297,0.04287 -0.88593,0.04287 -0.62873,0 -1.15743,-0.128603 -0.5287,-0.128603 -0.91451,-0.400097 -0.38581,-0.285784 -0.60014,-0.743039 -0.21434,-0.457254 -0.21434,-1.100268 0,-0.614436 0.24291,-1.057401 0.25721,-0.442965 0.68589,-0.71446 0.42867,-0.271495 1.00024,-0.400097 0.57157,-0.128603 1.20029,-0.128603 0.20005,0 0.41439,0.02858 0.21434,0.01429 0.4001,0.05716 0.20005,0.02858 0.34294,0.05716 0.14289,0.02858 0.20005,0.04287 v -0.371519 q 0,-0.328651 -0.0715,-0.643014 -0.0715,-0.328651 -0.25721,-0.571568 -0.18575,-0.257205 -0.51441,-0.400097 -0.31436,-0.157182 -0.82877,-0.157182 -0.6573,0 -1.15743,0.100025 -0.48583,0.08573 -0.72874,0.185759 l -0.15719,-1.100268 q 0.25721,-0.114314 0.85736,-0.214338 0.60014,-0.114314 1.30031,-0.114314 z"
         id="path2775" /><path
         d="m 667.85628,63.836561 h 2.81497 v 1.114558 h -2.81497 v 3.429408 q 0,0.557278 0.0857,0.928798 0.0857,0.35723 0.2572,0.571568 0.17147,0.200048 0.42868,0.285783 0.2572,0.08574 0.60015,0.08574 0.60014,0 0.95737,-0.128603 0.37152,-0.142892 0.51441,-0.200049 l 0.25721,1.100268 q -0.20005,0.100025 -0.70017,0.242917 -0.50012,0.157181 -1.14314,0.157181 -0.75733,0 -1.25745,-0.18576 -0.48583,-0.200048 -0.7859,-0.585857 -0.30008,-0.385808 -0.42868,-0.943087 -0.11431,-0.571568 -0.11431,-1.314606 V 61.764627 L 667.85628,61.536 Z"
         id="path2777" /><path
         d="m 673.68625,71.266945 h -1.32889 v -7.430384 h 1.32889 z m -0.67159,-8.773569 q -0.35723,0 -0.61443,-0.228627 -0.24292,-0.242916 -0.24292,-0.643014 0,-0.400098 0.24292,-0.628725 0.2572,-0.242916 0.61443,-0.242916 0.35723,0 0.60015,0.242916 0.2572,0.228627 0.2572,0.628725 0,0.400098 -0.2572,0.643014 -0.24292,0.228627 -0.60015,0.228627 z"
         id="path2779" /><path
         d="m 680.90228,64.836805 q -0.30007,0.328652 -0.8002,0.928798 -0.48583,0.600146 -1.0574,1.328896 -0.55728,0.728749 -1.12884,1.528944 -0.55728,0.800195 -0.98596,1.528944 h 4.08671 v 1.114558 h -5.67281 v -0.885931 q 0.34294,-0.628724 0.84306,-1.386052 0.50012,-0.757327 1.04311,-1.500366 0.55728,-0.757327 1.07169,-1.414631 0.5287,-0.671592 0.91451,-1.128846 h -3.67232 v -1.114558 h 5.35845 z"
         id="path2781" /><path
         d="m 682.0168,67.566042 q 0,-0.985955 0.28579,-1.714704 0.28578,-0.743038 0.75733,-1.228871 0.47154,-0.485833 1.08598,-0.728749 0.61443,-0.242917 1.25744,-0.242917 1.50037,0 2.30057,0.943088 0.80019,0.928798 0.80019,2.84355 0,0.08574 0,0.228628 0,0.128602 -0.0143,0.242916 h -5.08695 q 0.0857,1.157425 0.67159,1.757572 0.58586,0.600146 1.82902,0.600146 0.70017,0 1.17171,-0.114314 0.48583,-0.128602 0.72875,-0.242916 l 0.18576,1.114557 q -0.24292,0.128603 -0.85735,0.271495 -0.60015,0.142892 -1.37177,0.142892 -0.97166,0 -1.68612,-0.285784 -0.70017,-0.300073 -1.15743,-0.814484 -0.45725,-0.514411 -0.68588,-1.214582 -0.21434,-0.71446 -0.21434,-1.557523 z m 5.10125,-0.728749 q 0.0143,-0.90022 -0.45726,-1.471788 -0.45725,-0.585857 -1.27173,-0.585857 -0.45726,0 -0.81449,0.18576 -0.34294,0.17147 -0.58586,0.457254 -0.24291,0.285784 -0.3858,0.657303 -0.12861,0.37152 -0.17147,0.757328 z"
         id="path2783" /><path
         d="m 693.16235,63.67938 q 0.17147,0 0.38581,0.02858 0.22863,0.01429 0.44296,0.05716 0.21434,0.02858 0.38581,0.07145 0.18576,0.02858 0.2715,0.05716 l -0.22863,1.157425 q -0.15718,-0.05716 -0.5287,-0.128603 -0.35723,-0.08573 -0.9288,-0.08573 -0.37152,0 -0.74304,0.08573 -0.35723,0.07145 -0.47154,0.100025 v 6.24438 h -1.3289 v -7.116022 q 0.47155,-0.17147 1.17172,-0.314362 0.70017,-0.157181 1.57181,-0.157181 z"
         id="path2785" /></g><g
       aria-label="Neural"
       id="text16122"
       style="font-size:14.2892px;font-family:Ubuntu;-inkscape-font-specification:Ubuntu;stroke-width:0.107168;stroke-linecap:round;stroke-linejoin:round"
       transform="translate(-83.408761)"><path
         d="m 617.76069,111.59708 q -0.31437,-0.5287 -0.72875,-1.18601 -0.4001,-0.6573 -0.87164,-1.35747 -0.47155,-0.71446 -0.98596,-1.44321 -0.50012,-0.72875 -1.00024,-1.40034 -0.50012,-0.68588 -0.97167,-1.28603 -0.47154,-0.60015 -0.87164,-1.0574 v 7.73046 h -1.35747 v -9.90242 h 1.10027 q 0.67159,0.71446 1.42892,1.67184 0.77161,0.94308 1.51465,1.95762 0.75733,1.00024 1.41463,1.97191 0.67159,0.97166 1.12885,1.72899 v -7.33036 h 1.35747 v 9.90242 z"
         id="path2745" /><path
         d="m 620.87571,107.89617 q 0,-0.98595 0.28579,-1.7147 0.28578,-0.74304 0.75733,-1.22887 0.47154,-0.48583 1.08597,-0.72875 0.61444,-0.24292 1.25745,-0.24292 1.50037,0 2.30057,0.94309 0.80019,0.9288 0.80019,2.84355 0,0.0857 0,0.22863 0,0.1286 -0.0143,0.24291 h -5.08695 q 0.0857,1.15743 0.67159,1.75758 0.58586,0.60014 1.82902,0.60014 0.70017,0 1.17171,-0.11431 0.48583,-0.1286 0.72875,-0.24292 l 0.18576,1.11456 q -0.24292,0.1286 -0.85735,0.27149 -0.60015,0.1429 -1.37177,0.1429 -0.97166,0 -1.68612,-0.28579 -0.70017,-0.30007 -1.15743,-0.81448 -0.45725,-0.51441 -0.68588,-1.21458 -0.21434,-0.71446 -0.21434,-1.55753 z m 5.10125,-0.72875 q 0.0143,-0.90022 -0.45726,-1.47178 -0.45725,-0.58586 -1.27173,-0.58586 -0.45726,0 -0.81449,0.18576 -0.34294,0.17147 -0.58586,0.45725 -0.24291,0.28579 -0.3858,0.65731 -0.12861,0.37152 -0.17147,0.75732 z"
         id="path2747" /><path
         d="m 635.19347,111.38274 q -0.45726,0.11431 -1.21459,0.24291 -0.74303,0.12861 -1.72899,0.12861 -0.85735,0 -1.44321,-0.24292 -0.58586,-0.2572 -0.94309,-0.71446 -0.35723,-0.45725 -0.51441,-1.07169 -0.15718,-0.62872 -0.15718,-1.38605 v -4.17245 h 1.3289 v 3.88666 q 0,1.35748 0.42867,1.94334 0.42868,0.58585 1.44321,0.58585 0.21434,0 0.44297,-0.0143 0.22863,-0.0143 0.42867,-0.0286 0.20005,-0.0286 0.35723,-0.0429 0.17147,-0.0286 0.24292,-0.0572 v -6.27296 h 1.3289 z"
         id="path2749" /><path
         d="m 640.22326,104.00951 q 0.17147,0 0.3858,0.0286 0.22863,0.0143 0.44297,0.0572 0.21434,0.0286 0.38581,0.0714 0.18576,0.0286 0.27149,0.0572 l -0.22862,1.15742 q -0.15719,-0.0572 -0.5287,-0.1286 -0.35723,-0.0857 -0.9288,-0.0857 -0.37152,0 -0.74304,0.0857 -0.35723,0.0714 -0.47154,0.10003 v 6.24438 h -1.3289 v -7.11603 q 0.47154,-0.17147 1.17171,-0.31436 0.70017,-0.15718 1.57182,-0.15718 z"
         id="path2751" /><path
         d="m 645.51025,110.6397 q 0.47155,0 0.82878,-0.0143 0.37152,-0.0286 0.61443,-0.0857 v -2.21483 q -0.14289,-0.0714 -0.47154,-0.11431 -0.31436,-0.0572 -0.77162,-0.0572 -0.30007,0 -0.64301,0.0429 -0.32865,0.0429 -0.61444,0.18576 -0.27149,0.1286 -0.45725,0.37152 -0.18576,0.22862 -0.18576,0.61443 0,0.71446 0.45725,1.00025 0.45726,0.27149 1.24316,0.27149 z m -0.11431,-6.65877 q 0.8002,0 1.34318,0.21434 0.55728,0.20005 0.88594,0.58586 0.34294,0.37152 0.48583,0.90022 0.14289,0.51441 0.14289,1.14313 v 4.64399 q -0.17147,0.0286 -0.48583,0.0857 -0.30008,0.0429 -0.68588,0.0857 -0.38581,0.0429 -0.84307,0.0714 -0.44296,0.0429 -0.88593,0.0429 -0.62872,0 -1.15742,-0.12861 -0.5287,-0.1286 -0.91451,-0.40009 -0.38581,-0.28579 -0.60015,-0.74304 -0.21434,-0.45726 -0.21434,-1.10027 0,-0.61444 0.24292,-1.0574 0.25721,-0.44297 0.68588,-0.71446 0.42868,-0.2715 1.00025,-0.4001 0.57156,-0.1286 1.20029,-0.1286 0.20005,0 0.41439,0.0286 0.21433,0.0143 0.40009,0.0572 0.20005,0.0286 0.34294,0.0572 0.1429,0.0286 0.20005,0.0429 v -0.37152 q 0,-0.32865 -0.0714,-0.64301 -0.0715,-0.32866 -0.25721,-0.57157 -0.18576,-0.25721 -0.51441,-0.4001 -0.31436,-0.15718 -0.82877,-0.15718 -0.65731,0 -1.15743,0.10002 -0.48583,0.0857 -0.72875,0.18576 l -0.15718,-1.10027 q 0.25721,-0.11431 0.85735,-0.21433 0.60015,-0.11432 1.30032,-0.11432 z"
         id="path2753" /><path
         d="m 652.68342,111.73997 q -1.22887,-0.0286 -1.74328,-0.5287 -0.51441,-0.50012 -0.51441,-1.55752 v -8.91647 l 1.3289,-0.22862 v 8.93075 q 0,0.32865 0.0571,0.54299 0.0572,0.21433 0.18576,0.34294 0.1286,0.1286 0.34294,0.20005 0.21434,0.0571 0.5287,0.10002 z"
         id="path2755" /></g><g
       aria-label="Rule"
       id="text16852"
       style="font-size:14.2892px;font-family:Ubuntu;-inkscape-font-specification:Ubuntu;stroke-width:0.107168;stroke-linecap:round;stroke-linejoin:round"
       transform="translate(-83.408761)"><path
         d="m 680.52256,107.45321 q 0.22862,0.28578 0.57156,0.75733 0.35723,0.45725 0.72875,1.02882 0.37152,0.55728 0.72875,1.17171 0.37152,0.61444 0.62873,1.18601 h -1.51466 q -0.28578,-0.54299 -0.62872,-1.10027 -0.32865,-0.55728 -0.6716,-1.0574 -0.34294,-0.51441 -0.68588,-0.95738 -0.32865,-0.44296 -0.60014,-0.77162 -0.18576,0.0143 -0.38581,0.0143 -0.18576,0 -0.38581,0 h -1.24316 v 3.87238 h -1.38605 v -9.75953 q 0.58585,-0.14289 1.30031,-0.18576 0.72875,-0.0572 1.3289,-0.0572 2.08622,0 3.1722,0.7859 1.10027,0.78591 1.10027,2.34343 0,0.98596 -0.5287,1.68613 -0.51441,0.70017 -1.52894,1.04311 z m -2.10052,-4.64399 q -0.88593,0 -1.35747,0.0429 v 3.72948 h 0.98595 q 0.71446,0 1.28603,-0.0714 0.57157,-0.0714 0.95738,-0.27149 0.4001,-0.20005 0.61443,-0.55728 0.21434,-0.37152 0.21434,-0.97167 0,-0.55728 -0.21434,-0.9288 -0.21433,-0.37152 -0.58585,-0.58585 -0.35723,-0.21434 -0.85735,-0.30008 -0.48584,-0.0857 -1.04312,-0.0857 z"
         id="path2758" /><path
         d="m 690.49641,111.38274 q -0.45725,0.11431 -1.21458,0.24291 -0.74304,0.12861 -1.72899,0.12861 -0.85735,0 -1.44321,-0.24292 -0.58586,-0.2572 -0.94309,-0.71446 -0.35723,-0.45725 -0.51441,-1.07169 -0.15718,-0.62872 -0.15718,-1.38605 v -4.17245 h 1.3289 v 3.88666 q 0,1.35748 0.42867,1.94334 0.42868,0.58585 1.44321,0.58585 0.21434,0 0.44297,-0.0143 0.22862,-0.0143 0.42867,-0.0286 0.20005,-0.0286 0.35723,-0.0429 0.17147,-0.0286 0.24292,-0.0572 v -6.27296 h 1.32889 z"
         id="path2760" /><path
         d="m 695.01179,111.73997 q -1.22887,-0.0286 -1.74328,-0.5287 -0.51441,-0.50012 -0.51441,-1.55752 v -8.91647 l 1.32889,-0.22862 v 8.93075 q 0,0.32865 0.0572,0.54299 0.0572,0.21433 0.18576,0.34294 0.1286,0.1286 0.34294,0.20005 0.21434,0.0571 0.5287,0.10002 z"
         id="path2762" /><path
         d="m 696.26923,107.89617 q 0,-0.98595 0.28578,-1.7147 0.28578,-0.74304 0.75733,-1.22887 0.47154,-0.48583 1.08598,-0.72875 0.61443,-0.24292 1.25745,-0.24292 1.50036,0 2.30056,0.94309 0.80019,0.9288 0.80019,2.84355 0,0.0857 0,0.22863 0,0.1286 -0.0143,0.24291 h -5.08695 q 0.0857,1.15743 0.67159,1.75758 0.58586,0.60014 1.82902,0.60014 0.70017,0 1.17171,-0.11431 0.48583,-0.1286 0.72875,-0.24292 l 0.18576,1.11456 q -0.24292,0.1286 -0.85735,0.27149 -0.60015,0.1429 -1.37176,0.1429 -0.97167,0 -1.68613,-0.28579 -0.70017,-0.30007 -1.15743,-0.81448 -0.45725,-0.51441 -0.68588,-1.21458 -0.21433,-0.71446 -0.21433,-1.55753 z m 5.10124,-0.72875 q 0.0143,-0.90022 -0.45726,-1.47178 -0.45725,-0.58586 -1.27173,-0.58586 -0.45726,0 -0.81449,0.18576 -0.34294,0.17147 -0.58586,0.45725 -0.24291,0.28579 -0.3858,0.65731 -0.12861,0.37152 -0.17147,0.75732 z"
         id="path2764" /></g><rect
       style="fill:#e6eadd;fill-opacity:1;stroke:#cbd4ba;stroke-width:2.68474;stroke-linecap:round;stroke-linejoin:round;stroke-dasharray:none;stroke-opacity:1"
       id="rect23313"
       width="80.13398"
       height="40.06699"
       x="689.25122"
       y="83.993637"
       ry="20.033495" /><g
       aria-label="Doc"
       id="text23317"
       style="font-size:17.4788px;font-family:Ubuntu;-inkscape-font-specification:Ubuntu;fill:#647447;stroke-width:0.13109;stroke-linecap:round;stroke-linejoin:round"
       transform="translate(-83.408761)"><path
         d="m 807.40046,103.9133 q 0,1.5731 -0.48941,2.74417 -0.48941,1.15361 -1.38082,1.92267 -0.89142,0.75159 -2.13242,1.13612 -1.24099,0.36706 -2.72669,0.36706 -0.73411,0 -1.62553,-0.0699 -0.87394,-0.0524 -1.59057,-0.22722 V 98.040427 q 0.71663,-0.174788 1.59057,-0.227225 0.89142,-0.06992 1.62553,-0.06992 1.4857,0 2.72669,0.384534 1.241,0.367054 2.13242,1.136122 0.89141,0.751582 1.38082,1.922672 0.48941,1.15359 0.48941,2.72669 z m -6.58951,4.68432 q 2.41207,0 3.60063,-1.22351 1.18856,-1.241 1.18856,-3.46081 0,-2.2198 -1.18856,-3.44332 -1.18856,-1.240995 -3.60063,-1.240995 -0.71663,0 -1.11864,0.01748 -0.38454,0.01748 -0.54185,0.03496 v 9.263765 q 0.15731,0.0175 0.54185,0.0349 0.40201,0.0175 1.11864,0.0175 z"
         id="path2788" /><path
         d="m 817.83529,105.43396 q 0,1.08368 -0.31462,1.95762 -0.31462,0.87394 -0.89142,1.50318 -0.55932,0.62924 -1.34587,0.97881 -0.78654,0.3321 -1.71292,0.3321 -0.92637,0 -1.71292,-0.3321 -0.78655,-0.34957 -1.36335,-0.97881 -0.55932,-0.62924 -0.87394,-1.50318 -0.31462,-0.87394 -0.31462,-1.95762 0,-1.06621 0.31462,-1.94015 0.31462,-0.89142 0.87394,-1.52065 0.5768,-0.62924 1.36335,-0.96134 0.78655,-0.34957 1.71292,-0.34957 0.92638,0 1.71292,0.34957 0.78655,0.3321 1.34587,0.96134 0.5768,0.62923 0.89142,1.52065 0.31462,0.87394 0.31462,1.94015 z m -1.69544,0 q 0,-1.53814 -0.69916,-2.42955 -0.68167,-0.9089 -1.87023,-0.9089 -1.18856,0 -1.88771,0.9089 -0.68167,0.89141 -0.68167,2.42955 0,1.53813 0.68167,2.44703 0.69915,0.89142 1.88771,0.89142 1.18856,0 1.87023,-0.89142 0.69916,-0.9089 0.69916,-2.44703 z"
         id="path2790" /><path
         d="m 824.07519,110.18819 q -1.10116,0 -1.94015,-0.34957 -0.8215,-0.34958 -1.3983,-0.97882 -0.55932,-0.62923 -0.83898,-1.48569 -0.27966,-0.87394 -0.27966,-1.92267 0,-1.04873 0.29714,-1.92267 0.31461,-0.87394 0.87394,-1.50318 0.55932,-0.64671 1.36334,-0.99629 0.82151,-0.36705 1.8178,-0.36705 0.61175,0 1.22351,0.10487 0.61176,0.10487 1.17108,0.3321 l -0.36705,1.38082 q -0.36706,-0.17479 -0.85646,-0.27966 -0.47193,-0.10487 -1.01377,-0.10487 -1.36335,0 -2.09746,0.85646 -0.71663,0.85646 -0.71663,2.49947 0,0.73411 0.15731,1.34587 0.17479,0.61175 0.52436,1.04872 0.36706,0.43697 0.92638,0.68168 0.55932,0.22722 1.36335,0.22722 0.64671,0 1.17107,-0.12235 0.52437,-0.12235 0.82151,-0.26218 l 0.22722,1.36334 q -0.13983,0.0874 -0.40201,0.17479 -0.26218,0.0699 -0.59428,0.12235 -0.3321,0.0699 -0.71663,0.10488 -0.36705,0.0524 -0.71663,0.0524 z"
         id="path2792" /></g><path
       id="path28477"
       style="color:#000000;fill:#d3e1f1;stroke-width:0.784862;stroke-linecap:round;stroke-linejoin:round;-inkscape-stroke:none"
       d="m 127.37128,95.207827 c -0.36582,-0.0266 -0.72464,0.11016 -0.9799,0.37355 -0.47723,0.49167 -0.46491,1.2773 0.0275,1.75377 l 5.62025,5.452753 h -13.09234 c -0.68491,-3.2e-4 -1.24021,0.55498 -1.23989,1.23988 3.5e-4,0.68443 0.55546,1.23899 1.23989,1.23867 h 13.09365 l -5.62148,5.45439 c -0.49133,0.47629 -0.50364,1.26066 -0.0275,1.75214 0.47689,0.49199 1.26252,0.50364 1.75378,0.026 l 7.8149,-7.58209 c 0.0274,-0.0268 0.0535,-0.0548 0.0783,-0.084 0.005,-0.005 0.009,-0.0108 0.0138,-0.0162 0.0411,-0.0496 0.0782,-0.10237 0.11112,-0.15777 0.005,-0.008 0.009,-0.016 0.0134,-0.024 0.032,-0.0564 0.0595,-0.11529 0.0823,-0.17603 0.002,-0.006 0.004,-0.0116 0.006,-0.0174 0.0223,-0.0629 0.0396,-0.12743 0.0515,-0.19307 6.9e-4,-0.005 10e-4,-0.009 0.002,-0.0142 0.0111,-0.0657 0.0169,-0.13213 0.0174,-0.19874 2.7e-4,-0.003 5.3e-4,-0.005 7.8e-4,-0.008 -2e-4,-0.0257 -0.001,-0.0514 -0.003,-0.0771 -0.003,-0.0508 -0.009,-0.10128 -0.0187,-0.15128 -0.005,-0.0248 -0.01,-0.0494 -0.0162,-0.0738 v -7.7e-4 c -6.6e-4,-0.002 -0.001,-0.003 -0.002,-0.005 -0.012,-0.0476 -0.0269,-0.0945 -0.0445,-0.14033 l -4.1e-4,-7.8e-4 c -6.6e-4,-0.002 -10e-4,-0.003 -0.002,-0.005 -0.009,-0.0222 -0.018,-0.0441 -0.028,-0.0657 -0.0105,-0.0229 -0.0217,-0.0455 -0.0336,-0.0677 l -4.1e-4,-7.8e-4 -0.002,-0.002 c -0.0117,-0.0217 -0.024,-0.043 -0.0369,-0.064 -0.0134,-0.0215 -0.0275,-0.0426 -0.0422,-0.0633 -0.014,-0.0199 -0.0286,-0.0394 -0.0438,-0.0584 -6.7e-4,-0.001 -0.001,-0.002 -0.002,-0.003 -0.002,-0.003 -0.005,-0.005 -0.007,-0.008 -0.0135,-0.0166 -0.0274,-0.0328 -0.0418,-0.0486 l -0.002,-0.002 -0.005,-0.005 c -0.0141,-0.0154 -0.0286,-0.0304 -0.0434,-0.0451 l -0.005,-0.005 -7.8149,-7.581703 c -0.20903,-0.20329 -0.48306,-0.32637 -0.77387,-0.34758 z"
       sodipodi:nodetypes="cccccscccccccccccccccccscccccccsccccccccscscccc" /><path
       id="path28490"
       style="color:#000000;fill:#d3e1f1;stroke-width:0.784862;stroke-linecap:round;stroke-linejoin:round;-inkscape-stroke:none"
       d="m 675.86142,95.207827 c -0.36582,-0.0266 -0.72464,0.11016 -0.9799,0.37355 -0.47723,0.49167 -0.46491,1.2773 0.0275,1.75377 l 5.62025,5.452753 h -10.4465 c -0.6849,-3.2e-4 -1.24021,0.55498 -1.23989,1.23988 3.5e-4,0.68443 0.55546,1.23899 1.23989,1.23867 h 10.44781 l -5.62148,5.45439 c -0.49133,0.47629 -0.50364,1.26066 -0.0275,1.75214 0.47689,0.49199 1.26252,0.50364 1.75378,0.026 l 7.8149,-7.58209 c 0.0274,-0.0268 0.0535,-0.0548 0.0783,-0.084 0.005,-0.005 0.009,-0.0108 0.0138,-0.0162 0.0411,-0.0496 0.0782,-0.10237 0.11112,-0.15777 0.005,-0.008 0.009,-0.016 0.0134,-0.024 0.032,-0.0564 0.0595,-0.11529 0.0823,-0.17603 0.002,-0.006 0.004,-0.0116 0.006,-0.0174 0.0223,-0.0629 0.0396,-0.12743 0.0515,-0.19307 6.9e-4,-0.005 10e-4,-0.009 0.002,-0.0142 0.0111,-0.0657 0.0169,-0.13213 0.0174,-0.19874 2.7e-4,-0.003 5.3e-4,-0.005 7.8e-4,-0.008 -2e-4,-0.0257 -10e-4,-0.0514 -0.003,-0.0771 -0.003,-0.0508 -0.009,-0.10128 -0.0187,-0.15128 -0.005,-0.0248 -0.01,-0.0494 -0.0162,-0.0738 v -7.7e-4 c -6.6e-4,-0.002 -0.001,-0.003 -0.002,-0.005 -0.012,-0.0476 -0.0269,-0.0945 -0.0445,-0.14033 l -4.1e-4,-7.8e-4 c -6.6e-4,-0.002 -10e-4,-0.003 -0.002,-0.005 -0.009,-0.0222 -0.018,-0.0441 -0.028,-0.0657 -0.0105,-0.0229 -0.0217,-0.0455 -0.0336,-0.0677 l -4.1e-4,-7.8e-4 c -6.7e-4,-6.7e-4 -10e-4,-0.001 -0.002,-0.002 -0.0117,-0.0217 -0.024,-0.043 -0.0369,-0.064 -0.0134,-0.0215 -0.0275,-0.0426 -0.0422,-0.0633 -0.014,-0.0199 -0.0286,-0.0394 -0.0438,-0.0584 -6.7e-4,-0.001 -0.001,-0.002 -0.002,-0.003 -0.002,-0.003 -0.005,-0.005 -0.007,-0.008 -0.0135,-0.0166 -0.0274,-0.0328 -0.0418,-0.0486 -6.7e-4,-6.7e-4 -10e-4,-0.001 -0.002,-0.002 -0.002,-0.002 -0.003,-0.003 -0.005,-0.005 -0.0141,-0.0154 -0.0286,-0.0304 -0.0434,-0.0451 -0.002,-0.002 -0.003,-0.003 -0.005,-0.005 l -7.8149,-7.581703 c -0.20903,-0.20329 -0.48306,-0.32637 -0.77387,-0.34758 z"
       sodipodi:nodetypes="cccccscccccccccccccccccscccccccsccccccccscscccc" /><path
       id="path28492"
       style="color:#000000;fill:#e6eadd;fill-opacity:1;stroke-width:0.784862;stroke-linecap:round;stroke-linejoin:round;-inkscape-stroke:none"
       d="m 675.86142,95.207827 c -0.36582,-0.0266 -0.72464,0.11016 -0.9799,0.37355 -0.47723,0.49167 -0.46491,1.2773 0.0275,1.75377 l 5.62025,5.452753 h -13.09234 c -0.6849,-3.2e-4 -1.2402,0.55498 -1.23988,1.23988 3.5e-4,0.68443 0.55545,1.23899 1.23988,1.23867 h 13.09365 l -5.62148,5.45439 c -0.49133,0.47629 -0.50364,1.26066 -0.0275,1.75214 0.47689,0.49199 1.26252,0.50364 1.75378,0.026 l 7.8149,-7.58209 c 0.0274,-0.0268 0.0535,-0.0548 0.0783,-0.084 0.005,-0.005 0.009,-0.0108 0.0138,-0.0162 0.0411,-0.0496 0.0782,-0.10237 0.11112,-0.15777 0.005,-0.008 0.009,-0.016 0.0134,-0.024 0.032,-0.0564 0.0595,-0.11529 0.0823,-0.17603 0.002,-0.006 0.004,-0.0116 0.006,-0.0174 0.0223,-0.0629 0.0396,-0.12743 0.0515,-0.19307 6.9e-4,-0.005 10e-4,-0.009 0.002,-0.0142 0.0111,-0.0657 0.0169,-0.13213 0.0174,-0.19874 2.7e-4,-0.003 5.3e-4,-0.005 7.8e-4,-0.008 -2e-4,-0.0257 -10e-4,-0.0514 -0.003,-0.0771 -0.003,-0.0508 -0.009,-0.10128 -0.0187,-0.15128 -0.005,-0.0248 -0.01,-0.0494 -0.0162,-0.0738 v -7.7e-4 c -6.6e-4,-0.002 -0.001,-0.003 -0.002,-0.005 -0.012,-0.0476 -0.0269,-0.0945 -0.0445,-0.14033 l -4.1e-4,-7.8e-4 c -6.6e-4,-0.002 -10e-4,-0.003 -0.002,-0.005 -0.009,-0.0222 -0.018,-0.0441 -0.028,-0.0657 -0.0105,-0.0229 -0.0217,-0.0455 -0.0336,-0.0677 l -4.1e-4,-7.8e-4 -0.002,-0.002 c -0.0117,-0.0217 -0.024,-0.043 -0.0369,-0.064 -0.0134,-0.0215 -0.0275,-0.0426 -0.0422,-0.0633 -0.014,-0.0199 -0.0286,-0.0394 -0.0438,-0.0584 -6.7e-4,-0.001 -0.001,-0.002 -0.002,-0.003 -0.002,-0.003 -0.005,-0.005 -0.007,-0.008 -0.0135,-0.0166 -0.0274,-0.0328 -0.0418,-0.0486 l -0.002,-0.002 -0.005,-0.005 c -0.0141,-0.0154 -0.0286,-0.0304 -0.0434,-0.0451 l -0.005,-0.005 -7.8149,-7.581703 c -0.20903,-0.20329 -0.48306,-0.32637 -0.77387,-0.34758 z"
       sodipodi:nodetypes="cccccscccccccccccccccccscccccccsccccccccscscccc" /></g></svg>
